<svg width="44" height="43" viewBox="0 0 44 43" fill="none" xmlns="http://www.w3.org/2000/svg">
<path d="M43.7188 16.0016C43.5296 15.4183 43.1729 14.9037 42.6933 14.5216C42.2137 14.1396 41.6323 13.9071 41.0215 13.8531L29.4219 12.8531L24.875 2.04063C24.6383 1.47327 24.239 0.988648 23.7274 0.64777C23.2158 0.306891 22.6148 0.125 22 0.125C21.3853 0.125 20.7843 0.306891 20.2727 0.64777C19.7611 0.988648 19.3618 1.47327 19.125 2.04063L14.5918 12.8531L2.97856 13.859C2.36535 13.9105 1.781 14.1419 1.29879 14.5243C0.816582 14.9066 0.457981 15.4227 0.267957 16.008C0.0779334 16.5933 0.0649451 17.2217 0.230621 17.8144C0.396298 18.407 0.733263 18.9375 1.19926 19.3395L10.0098 27.0387L7.36918 38.4723C7.22955 39.0706 7.2694 39.6968 7.48373 40.2726C7.69806 40.8484 8.07738 41.3483 8.57425 41.7097C9.07112 42.0711 9.66351 42.278 10.2773 42.3045C10.8912 42.3311 11.4992 42.1761 12.0254 41.859L21.9864 35.8043L31.9688 41.859C32.495 42.1761 33.1031 42.3311 33.7169 42.3045C34.3307 42.278 34.9231 42.0711 35.42 41.7097C35.9168 41.3483 36.2962 40.8484 36.5105 40.2726C36.7248 39.6968 36.7647 39.0706 36.625 38.4723L33.9864 27.027L42.795 19.3395C43.2609 18.9362 43.5972 18.4041 43.7616 17.8102C43.926 17.2163 43.9111 16.587 43.7188 16.0016ZM40.7461 16.9781L31.9375 24.6656C31.5088 25.0385 31.1899 25.5213 31.0151 26.0619C30.8403 26.6026 30.8162 27.1807 30.9454 27.734L33.5918 39.1871L23.6172 33.1324C23.1306 32.8361 22.5718 32.6793 22.002 32.6793C21.4322 32.6793 20.8734 32.8361 20.3868 33.1324L10.4258 39.1871L13.0547 27.7418C13.1839 27.1885 13.1598 26.6104 12.985 26.0697C12.8102 25.5291 12.4913 25.0464 12.0625 24.6734L3.25004 16.9898C3.24933 16.984 3.24933 16.9781 3.25004 16.9723L14.8594 15.9684C15.4262 15.9184 15.9686 15.7146 16.4281 15.379C16.8876 15.0435 17.2468 14.5888 17.4668 14.0641L22 3.26524L26.5313 14.0641C26.7514 14.5888 27.1105 15.0435 27.57 15.379C28.0295 15.7146 28.5719 15.9184 29.1387 15.9684L40.75 16.9723V16.9859L40.7461 16.9781Z" fill="#343434"/>
</svg>
