<svg width="36" height="35" viewBox="0 0 36 35" fill="none" xmlns="http://www.w3.org/2000/svg">
<path d="M34.6407 15.8716L27.5938 22.0216L29.7047 31.1778C29.8164 31.6565 29.7845 32.1574 29.6131 32.6181C29.4416 33.0787 29.1382 33.4786 28.7407 33.7677C28.3432 34.0569 27.8693 34.2224 27.3782 34.2436C26.8871 34.2649 26.4007 34.1409 25.9797 33.8872L17.9938 29.0434L10.025 33.8872C9.60405 34.1409 9.11762 34.2649 8.62655 34.2436C8.13549 34.2224 7.66159 34.0569 7.26409 33.7677C6.86659 33.4786 6.56314 33.0787 6.39167 32.6181C6.2202 32.1574 6.18833 31.6565 6.30003 31.1778L8.40785 22.0309L1.35941 15.8716C0.986611 15.55 0.717038 15.1256 0.584497 14.6515C0.451956 14.1774 0.462347 13.6747 0.614366 13.2064C0.766385 12.7382 1.05327 12.3252 1.43903 12.0194C1.8248 11.7136 2.29228 11.5284 2.78285 11.4872L12.0735 10.6825L15.7 2.0325C15.8894 1.57862 16.2089 1.19092 16.6181 0.918216C17.0274 0.645513 17.5082 0.5 18 0.5C18.4918 0.5 18.9727 0.645513 19.3819 0.918216C19.7912 1.19092 20.1106 1.57862 20.3 2.0325L23.9375 10.6825L33.225 11.4872C33.7156 11.5284 34.1831 11.7136 34.5688 12.0194C34.9546 12.3252 35.2415 12.7382 35.3935 13.2064C35.5455 13.6747 35.5559 14.1774 35.4234 14.6515C35.2908 15.1256 35.0213 15.55 34.6485 15.8716H34.6407Z" fill="#5FCB75"/>
</svg>
