<svg width="16" height="16" viewBox="0 0 16 16" fill="none" xmlns="http://www.w3.org/2000/svg">
<path d="M7.99992 12L5.19992 13.2C4.75547 13.3889 4.33325 13.3529 3.93325 13.092C3.53325 12.8311 3.33325 12.4616 3.33325 11.9833V3.33333C3.33325 2.96667 3.46392 2.65289 3.72525 2.392C3.98659 2.13111 4.30036 2.00044 4.66659 2H11.3333C11.6999 2 12.0139 2.13067 12.2753 2.392C12.5366 2.65333 12.667 2.96711 12.6666 3.33333V11.9833C12.6666 12.4611 12.4666 12.8307 12.0666 13.092C11.6666 13.3533 11.2444 13.3893 10.7999 13.2L7.99992 12ZM7.99992 10.5333L11.3333 11.9667V3.33333H4.66659V11.9667L7.99992 10.5333ZM7.99992 3.33333H4.66659H11.3333H7.99992Z" fill="#FFC120"/>
</svg>
