<svg width="19" height="18" viewBox="0 0 19 18" fill="none" xmlns="http://www.w3.org/2000/svg">
<path d="M16.2238 0H2.51749C1.99819 0 1.50015 0.210714 1.13295 0.585786C0.765741 0.960859 0.559448 1.46957 0.559448 2V16C0.559448 16.5304 0.765741 17.0391 1.13295 17.4142C1.50015 17.7893 1.99819 18 2.51749 18H16.2238C16.7431 18 17.2411 17.7893 17.6083 17.4142C17.9755 17.0391 18.1818 16.5304 18.1818 16V2C18.1818 1.46957 17.9755 0.960859 17.6083 0.585786C17.2411 0.210714 16.7431 0 16.2238 0ZM16.2238 2V16H2.51749V2H16.2238ZM7.41259 14L3.49651 10L4.87693 8.58L7.41259 11.17L13.8643 4.58L15.2448 6" fill="#5FCB75"/>
</svg>
