<svg width="16" height="16" viewBox="0 0 16 16" fill="none" xmlns="http://www.w3.org/2000/svg">
<rect width="16" height="16" fill="white"/>
<path fill-rule="evenodd" clip-rule="evenodd" d="M4.843 10.944L4.649 13.279C4.64545 13.3197 4.6542 13.3606 4.67413 13.3962C4.69406 13.4319 4.72425 13.4608 4.76078 13.4791C4.79731 13.4974 4.8385 13.5043 4.87902 13.499C4.91953 13.4936 4.9575 13.4762 4.988 13.449L7.198 11.485L7.787 11.498L8 11.5C9.695 11.5 11.087 11.06 12.02 10.323C12.91 9.621 13.5 8.563 13.5 7C13.5 5.437 12.91 4.38 12.02 3.677C11.087 2.94 9.695 2.5 8 2.5C6.305 2.5 4.913 2.94 3.98 3.677C3.09 4.38 2.5 5.437 2.5 7C2.5 8.648 3.156 9.742 4.148 10.448L4.843 10.944ZM5.984 14.569L7.754 12.997C7.834 13 7.916 13 8 13C11.866 13 15 11 15 7C15 3 11.866 1 8 1C4.134 1 1 3 1 7C1 9.117 1.878 10.674 3.277 11.67L3.154 13.154C3.12578 13.4933 3.19987 13.8334 3.36672 14.1302C3.53357 14.427 3.78552 14.667 4.09009 14.8193C4.39465 14.9716 4.73785 15.0292 5.07542 14.9845C5.413 14.9399 5.72946 14.7952 5.984 14.569Z" fill="#1975FF"/>
</svg>
