<svg width="20" height="20" viewBox="0 0 20 20" fill="none" xmlns="http://www.w3.org/2000/svg">
<path d="M10.0003 14.167C10.2364 14.167 10.4345 14.087 10.5945 13.927C10.7545 13.767 10.8342 13.5692 10.8337 13.3337C10.8337 13.0975 10.7537 12.8998 10.5937 12.7403C10.4337 12.5809 10.2359 12.5009 10.0003 12.5003C9.76421 12.5003 9.56644 12.5803 9.40699 12.7403C9.24755 12.9003 9.16755 13.0981 9.16699 13.3337C9.16699 13.5698 9.24699 13.7678 9.40699 13.9278C9.56699 14.0878 9.76477 14.1675 10.0003 14.167ZM9.16699 10.8337H10.8337V5.83366H9.16699V10.8337ZM10.0003 18.3337C8.84755 18.3337 7.76421 18.1148 6.75033 17.677C5.73644 17.2392 4.85449 16.6456 4.10449 15.8962C3.35449 15.1462 2.76088 14.2642 2.32366 13.2503C1.88644 12.2364 1.66755 11.1531 1.66699 10.0003C1.66699 8.84755 1.88588 7.76421 2.32366 6.75033C2.76144 5.73644 3.35505 4.85449 4.10449 4.10449C4.85449 3.35449 5.73644 2.76088 6.75033 2.32366C7.76421 1.88644 8.84755 1.66755 10.0003 1.66699C11.1531 1.66699 12.2364 1.88588 13.2503 2.32366C14.2642 2.76144 15.1462 3.35505 15.8962 4.10449C16.6462 4.85449 17.24 5.73644 17.6778 6.75033C18.1156 7.76421 18.3342 8.84755 18.3337 10.0003C18.3337 11.1531 18.1148 12.2364 17.677 13.2503C17.2392 14.2642 16.6456 15.1462 15.8962 15.8962C15.1462 16.6462 14.2642 17.24 13.2503 17.6778C12.2364 18.1156 11.1531 18.3342 10.0003 18.3337Z" fill="#FF1348"/>
</svg>
