<svg width="22" height="22" viewBox="0 0 22 22" fill="none" xmlns="http://www.w3.org/2000/svg">
<path d="M0.241575 0.241571C0.10205 0.381137 0.0171704 0.566092 0.00233556 0.762883C-0.0124993 0.959673 0.043693 1.15526 0.160719 1.31417L0.241575 1.40823L4.68044 5.84713C2.51646 7.3635 0.971575 9.60908 0.329033 12.1722C0.281719 12.3824 0.318552 12.6028 0.431654 12.7863C0.544756 12.9697 0.725148 13.1017 0.934253 13.1538C1.14336 13.206 1.36457 13.1743 1.55059 13.0655C1.73661 12.9566 1.87267 12.7793 1.92967 12.5715C2.50023 10.2967 3.90574 8.31975 5.86689 7.03359L7.85861 9.02532C7.05965 9.85585 6.61835 10.9666 6.62951 12.119C6.64067 13.2714 7.10341 14.3735 7.9183 15.1884C8.73319 16.0033 9.83522 16.466 10.9876 16.4772C12.14 16.4883 13.2508 16.047 14.0813 15.248L20.5927 21.7595C20.74 21.9062 20.9371 21.9918 21.1447 21.9994C21.3524 22.0071 21.5553 21.936 21.7128 21.8006C21.8704 21.6651 21.971 21.4751 21.9947 21.2687C22.0183 21.0623 21.9631 20.8545 21.8402 20.6869L21.7594 20.5929L15.0351 13.8669V13.8652L13.7149 12.5467L10.5582 9.39001L7.39162 6.22337L6.14577 4.9775L1.40822 0.241571C1.2535 0.0868933 1.04368 0 0.824899 0C0.60612 0 0.396299 0.0868933 0.241575 0.241571ZM9.02526 10.192L12.913 14.0814C12.3937 14.5798 11.6997 14.8549 10.98 14.8475C10.2602 14.8402 9.57199 14.551 9.06302 14.042C8.55404 13.533 8.26484 12.8448 8.25747 12.125C8.25011 11.4053 8.52681 10.7113 9.02526 10.192ZM11.0005 3.85045C9.89983 3.85045 8.83219 4.01217 7.82231 4.31744L9.18367 5.67717C11.5374 5.21093 13.9804 5.667 16.0074 6.95109C18.0344 8.23518 19.4905 10.2491 20.0746 12.5764C20.1316 12.7843 20.2676 12.9616 20.4536 13.0704C20.6397 13.1792 20.8609 13.211 21.07 13.1588C21.2791 13.1066 21.4595 12.9747 21.5726 12.7912C21.6857 12.6078 21.7225 12.3874 21.6752 12.1771C21.0783 9.79808 19.7037 7.68664 17.7697 6.17807C15.8358 4.6695 13.4532 3.85027 11.0005 3.85045ZM11.215 7.7118L15.3964 11.8916C15.3429 10.7999 14.8851 9.76722 14.1122 8.99435C13.3394 8.22148 12.3067 7.76539 11.215 7.7118Z" fill="#343434"/>
</svg>
