<svg width="21" height="20" viewBox="0 0 21 20" fill="none" xmlns="http://www.w3.org/2000/svg">
<path d="M0.517578 16.8421V13.8947C0.517578 13.2982 0.668038 12.7502 0.968958 12.2505C1.26988 11.7509 1.66904 11.3691 2.16646 11.1053C3.23136 10.5614 4.31343 10.1537 5.41268 9.8821C6.51194 9.61053 7.62836 9.47439 8.76197 9.47368C9.10548 9.47368 9.449 9.48702 9.79251 9.51368C10.136 9.54035 10.4795 9.57965 10.8231 9.63158C10.7544 10.6491 10.9347 11.6098 11.3641 12.5137C11.7935 13.4175 12.4204 14.1586 13.2449 14.7368V16.8421H0.517578ZM17.0064 20L15.4605 18.4211V13.5263C14.7048 13.2982 14.0865 12.8642 13.6055 12.2242C13.1246 11.5842 12.8842 10.8428 12.8842 10C12.8842 8.98246 13.2363 8.11403 13.9405 7.39474C14.6447 6.67544 15.4949 6.31579 16.4911 6.31579C17.4873 6.31579 18.3375 6.67544 19.0417 7.39474C19.7459 8.11403 20.098 8.98246 20.098 10C20.098 10.7895 19.8788 11.4912 19.4405 12.1053C19.0022 12.7193 18.4484 13.1579 17.7793 13.4211L19.0674 14.7368L17.5216 16.3158L19.0674 17.8947L17.0064 20ZM8.76197 8.42105C7.62836 8.42105 6.65793 8.00877 5.85067 7.18421C5.0434 6.35965 4.63977 5.36842 4.63977 4.21053C4.63977 3.05263 5.0434 2.0614 5.85067 1.23684C6.65793 0.412281 7.62836 0 8.76197 0C9.89557 0 10.866 0.412281 11.6733 1.23684C12.4805 2.0614 12.8842 3.05263 12.8842 4.21053C12.8842 5.36842 12.4805 6.35965 11.6733 7.18421C10.866 8.00877 9.89557 8.42105 8.76197 8.42105ZM16.4911 10.5263C16.7831 10.5263 17.028 10.4253 17.2259 10.2232C17.4237 10.0211 17.5223 9.77123 17.5216 9.47368C17.5216 9.17544 17.4227 8.92561 17.2248 8.72421C17.027 8.52281 16.7824 8.42175 16.4911 8.42105C16.1991 8.42105 15.9545 8.52211 15.7573 8.72421C15.5602 8.92632 15.4612 9.17614 15.4605 9.47368C15.4605 9.77193 15.5595 10.0221 15.7573 10.2242C15.9552 10.4263 16.1998 10.527 16.4911 10.5263Z" fill="#343434" fill-opacity="0.5"/>
</svg>
