<svg width="60" height="60" viewBox="0 0 60 60" fill="none" xmlns="http://www.w3.org/2000/svg">
<g id="gravity-ui:comment">
<rect width="60" height="60" fill="white"/>
<path id="Vector" fill-rule="evenodd" clip-rule="evenodd" d="M18.1613 41.04L17.4338 49.7962C17.4204 49.9489 17.4533 50.1021 17.528 50.2359C17.6027 50.3697 17.7159 50.4779 17.8529 50.5466C17.9899 50.6153 18.1444 50.6413 18.2963 50.6212C18.4482 50.601 18.5906 50.5358 18.705 50.4338L26.9925 43.0687L29.2013 43.1175L30 43.125C36.3563 43.125 41.5763 41.475 45.075 38.7113C48.4125 36.0788 50.625 32.1112 50.625 26.25C50.625 20.3888 48.4125 16.425 45.075 13.7887C41.5763 11.025 36.3563 9.375 30 9.375C23.6437 9.375 18.4237 11.025 14.925 13.7887C11.5875 16.425 9.375 20.3888 9.375 26.25C9.375 32.43 11.835 36.5325 15.555 39.18L18.1613 41.04ZM22.44 54.6338L29.0775 48.7388C29.3775 48.75 29.685 48.75 30 48.75C44.4975 48.75 56.25 41.25 56.25 26.25C56.25 11.25 44.4975 3.75 30 3.75C15.5025 3.75 3.75 11.25 3.75 26.25C3.75 34.1888 7.0425 40.0275 12.2887 43.7625L11.8275 49.3275C11.7217 50.6 11.9995 51.8751 12.6252 52.9882C13.2509 54.1013 14.1957 55.0014 15.3378 55.5725C16.4799 56.1435 17.7669 56.3593 19.0328 56.192C20.2987 56.0247 21.4855 55.4819 22.44 54.6338Z" fill="#5DC973"/>
</g>
</svg>
