<svg width="30" height="30" viewBox="0 0 30 30" fill="none" xmlns="http://www.w3.org/2000/svg">
<path d="M2.5 27.5C2.5 25.7313 2.5 24.8475 3.05 24.3C3.59875 23.75 4.4825 23.75 6.25 23.75C8.01875 23.75 8.9025 23.75 9.45 24.3C10 24.8488 10 25.7325 10 27.5V16.25C10 14.4813 10 13.5975 10.55 13.05C11.0987 12.5 11.9825 12.5 13.75 12.5H16.25C18.0187 12.5 18.9025 12.5 19.45 13.05C20 13.5987 20 14.4825 20 16.25V27.5V23.75C20 21.9813 20 21.0975 20.55 20.55C21.0988 20 21.9825 20 23.75 20C25.5187 20 26.4025 20 26.95 20.55C27.5 21.0988 27.5 21.9825 27.5 23.75V27.5" stroke="#343434" stroke-width="1.5" stroke-linecap="round"/>
<path d="M13.9326 3.77875C14.4076 2.925 14.6451 2.5 15.0001 2.5C15.3551 2.5 15.5926 2.925 16.0676 3.77875L16.1901 3.99875C16.3251 4.24125 16.3926 4.36125 16.4976 4.44125C16.6039 4.52125 16.7351 4.55125 16.9976 4.61L17.2351 4.665C18.1576 4.87375 18.6189 4.9775 18.7289 5.33C18.8389 5.68375 18.5239 6.05125 17.8951 6.78625L17.7326 6.97625C17.5539 7.185 17.4639 7.28875 17.4239 7.41875C17.3839 7.54875 17.3976 7.6875 17.4239 7.96625L17.4489 8.22C17.5439 9.20125 17.5914 9.6925 17.3051 9.91C17.0176 10.1287 16.5851 9.92875 15.7214 9.53125L15.4989 9.42875C15.2526 9.31625 15.1301 9.25875 15.0001 9.25875C14.8701 9.25875 14.7476 9.31625 14.5014 9.42875L14.2789 9.53125C13.4151 9.92875 12.9826 10.1287 12.6951 9.91C12.4076 9.6925 12.4564 9.20125 12.5514 8.22L12.5764 7.96625C12.6026 7.6875 12.6164 7.54875 12.5764 7.41875C12.5364 7.29 12.4464 7.185 12.2676 6.97625L12.1051 6.78625C11.4764 6.05125 11.1614 5.68375 11.2714 5.33C11.3814 4.9775 11.8426 4.87375 12.7651 4.665L13.0026 4.61C13.2651 4.55125 13.3964 4.5225 13.5026 4.44125C13.6076 4.36125 13.6751 4.24125 13.8101 3.99875L13.9326 3.77875Z" stroke="#343434" stroke-width="1.5"/>
</svg>
