<svg width="30" height="30" viewBox="0 0 30 30" fill="none" xmlns="http://www.w3.org/2000/svg">
<g id="lets-icons:flag-finish-alt">
<path id="Vector" d="M6.25 16.25V4.375C6.25 4.08 6.25 3.9325 6.34125 3.84125C6.4325 3.75 6.58 3.75 6.875 3.75H11.995C12.245 3.75 12.37 3.75 12.4825 3.795C12.595 3.84125 12.6838 3.9275 12.8638 4.10125L14.7238 5.89875C14.9038 6.0725 14.9938 6.15875 15.1063 6.205C15.2188 6.25 15.3438 6.25 15.5938 6.25H23.3375C23.6413 6.25 23.7925 6.25 23.8462 6.3475C23.8987 6.445 23.8175 6.5725 23.6525 6.8275L20.2175 12.1625C20.1125 12.3275 20.0588 12.4088 20.0588 12.5013C20.0588 12.5925 20.1125 12.6762 20.2175 12.8387L23.6525 18.1737C23.8175 18.4287 23.8987 18.5563 23.8462 18.6538C23.7925 18.7513 23.6413 18.7513 23.3375 18.7513H15.5925C15.3425 18.7513 15.2175 18.7513 15.105 18.7063C14.9925 18.66 14.9038 18.5738 14.7238 18.4L12.8638 16.6025C12.6838 16.4287 12.5937 16.3425 12.4812 16.2962C12.3687 16.2512 12.2438 16.2513 11.9938 16.2513L6.25 16.25ZM6.25 16.25V23.75" stroke="black" stroke-width="2.5" stroke-linecap="round"/>
</g>
</svg>
