<svg width="16" height="16" viewBox="0 0 16 16" fill="none" xmlns="http://www.w3.org/2000/svg">
<g clip-path="url(#clip0_389_127)">
<path fill-rule="evenodd" clip-rule="evenodd" d="M6.54733 2.14069C6.74467 1.68069 7.254 1.26335 7.89667 1.38735C8.87933 1.57602 9.92267 2.32135 9.996 3.53002L10 3.66602V5.33269H11.6033C11.9829 5.33267 12.3581 5.41369 12.7039 5.57033C13.0497 5.72698 13.358 5.95564 13.6083 6.24102C13.8586 6.5264 14.0451 6.86193 14.1553 7.22518C14.2655 7.58842 14.2969 7.97101 14.2473 8.34735L14.2273 8.47669L13.6207 11.81C13.5131 12.402 13.2085 12.9403 12.7563 13.3373C12.3041 13.7343 11.731 13.9667 11.13 13.9967L10.9973 13.9994H4C3.48986 13.9994 2.99899 13.8045 2.62783 13.4545C2.25666 13.1045 2.03326 12.6259 2.00333 12.1167L2 11.9994V7.99935C1.99997 7.48921 2.19488 6.99834 2.54486 6.62718C2.89483 6.25602 3.3734 6.03261 3.88267 6.00269L4 5.99935H4.89333L6.54733 2.14069ZM4.66667 7.33269H4C3.82319 7.33269 3.65362 7.40292 3.5286 7.52795C3.40357 7.65297 3.33333 7.82254 3.33333 7.99935V11.9994C3.33333 12.1762 3.40357 12.3457 3.5286 12.4708C3.65362 12.5958 3.82319 12.666 4 12.666H4.66667V7.33269ZM7.75 2.71935L6.054 6.67735C6.0303 6.73249 6.01416 6.79057 6.006 6.85002L6 6.93935V12.666H10.9973C11.2913 12.666 11.577 12.5689 11.8101 12.3898C12.0431 12.2106 12.2105 11.9594 12.286 11.6754L12.3093 11.5714L12.916 8.23802C12.9495 8.05402 12.944 7.86502 12.8997 7.68331C12.8554 7.50159 12.7733 7.33123 12.6589 7.18329C12.5445 7.03535 12.4002 6.91313 12.2355 6.82459C12.0707 6.73605 11.8892 6.68316 11.7027 6.66935L11.6033 6.66602H10C9.66362 6.66613 9.33962 6.53908 9.09297 6.31036C8.84631 6.08163 8.69523 5.76812 8.67 5.43269L8.66667 5.33269V3.66602C8.66667 3.29735 8.37733 2.92202 7.86333 2.75269L7.75 2.71935Z" fill="#FF1348"/>
</g>
<defs>
<clipPath id="clip0_389_127">
<rect width="16" height="16" fill="white"/>
</clipPath>
</defs>
</svg>
