<svg width="30" height="30" viewBox="0 0 30 30" fill="none" xmlns="http://www.w3.org/2000/svg">
<path d="M25.9923 20.618C25.3419 19.4977 24.3751 16.3277 24.3751 12.1875C24.3751 9.7011 23.3874 7.31653 21.6292 5.55837C19.8711 3.80022 17.4865 2.8125 15.0001 2.8125C12.5137 2.8125 10.1291 3.80022 8.37098 5.55837C6.61283 7.31653 5.62511 9.7011 5.62511 12.1875C5.62511 16.3289 4.65714 19.4977 4.00675 20.618C3.84066 20.9028 3.75261 21.2264 3.75148 21.5561C3.75034 21.8858 3.83617 22.2099 4.0003 22.4959C4.16443 22.7818 4.40106 23.0195 4.68632 23.1848C4.97159 23.3501 5.2954 23.4373 5.62511 23.4375H10.4075C10.6238 24.4959 11.199 25.4471 12.0359 26.1302C12.8727 26.8133 13.9198 27.1864 15.0001 27.1864C16.0804 27.1864 17.1275 26.8133 17.9643 26.1302C18.8012 25.4471 19.3764 24.4959 19.5927 23.4375H24.3751C24.7047 23.4371 25.0284 23.3497 25.3135 23.1843C25.5986 23.0189 25.835 22.7813 25.999 22.4954C26.163 22.2095 26.2487 21.8854 26.2476 21.5558C26.2464 21.2262 26.1583 20.9027 25.9923 20.618ZM15.0001 25.3125C14.4186 25.3123 13.8515 25.1319 13.3768 24.7961C12.9021 24.4604 12.5431 23.9857 12.3493 23.4375H17.6509C17.4571 23.9857 17.0981 24.4604 16.6234 24.7961C16.1487 25.1319 15.5816 25.3123 15.0001 25.3125ZM5.62511 21.5625C6.52745 20.0109 7.50011 16.4156 7.50011 12.1875C7.50011 10.1984 8.29028 8.29072 9.69681 6.8842C11.1033 5.47768 13.011 4.6875 15.0001 4.6875C16.9892 4.6875 18.8969 5.47768 20.3034 6.8842C21.7099 8.29072 22.5001 10.1984 22.5001 12.1875C22.5001 16.4121 23.4704 20.0074 24.3751 21.5625H5.62511Z" fill="black"/>
</svg>
