<svg width="24" height="26" viewBox="0 0 24 26" fill="none" xmlns="http://www.w3.org/2000/svg">
<path d="M22.9923 18.618C22.3419 17.4977 21.3751 14.3277 21.3751 10.1875C21.3751 7.7011 20.3874 5.31653 18.6292 3.55837C16.8711 1.80022 14.4865 0.8125 12.0001 0.8125C9.5137 0.8125 7.12913 1.80022 5.37098 3.55837C3.61283 5.31653 2.62511 7.7011 2.62511 10.1875C2.62511 14.3289 1.65714 17.4977 1.00675 18.618C0.840658 18.9028 0.752608 19.2264 0.751476 19.5561C0.750344 19.8858 0.836171 20.2099 1.0003 20.4959C1.16443 20.7818 1.40106 21.0195 1.68632 21.1848C1.97159 21.3501 2.2954 21.4373 2.62511 21.4375H7.40753C7.62382 22.4959 8.19904 23.4471 9.03589 24.1302C9.87273 24.8133 10.9198 25.1864 12.0001 25.1864C13.0804 25.1864 14.1275 24.8133 14.9643 24.1302C15.8012 23.4471 16.3764 22.4959 16.5927 21.4375H21.3751C21.7047 21.4371 22.0284 21.3497 22.3135 21.1843C22.5986 21.0189 22.835 20.7813 22.999 20.4954C23.163 20.2095 23.2487 19.8854 23.2476 19.5558C23.2464 19.2262 23.1583 18.9027 22.9923 18.618ZM12.0001 23.3125C11.4186 23.3123 10.8515 23.1319 10.3768 22.7961C9.90211 22.4604 9.54315 21.9857 9.34933 21.4375H14.6509C14.4571 21.9857 14.0981 22.4604 13.6234 22.7961C13.1487 23.1319 12.5816 23.3123 12.0001 23.3125ZM2.62511 19.5625C3.52745 18.0109 4.50011 14.4156 4.50011 10.1875C4.50011 8.19838 5.29028 6.29072 6.69681 4.8842C8.10333 3.47768 10.011 2.6875 12.0001 2.6875C13.9892 2.6875 15.8969 3.47768 17.3034 4.8842C18.7099 6.29072 19.5001 8.19838 19.5001 10.1875C19.5001 14.4121 20.4704 18.0074 21.3751 19.5625H2.62511Z" fill="black"/>
</svg>
