<svg width="21" height="20" viewBox="0 0 21 20" fill="none" xmlns="http://www.w3.org/2000/svg">
<g clip-path="url(#clip0_6_23932)">
<path d="M9.29435 18.3691C9.23061 18.6165 9.18281 18.8672 9.15094 19.1211C9.11907 19.375 9.09676 19.6354 9.08401 19.9023C8.26816 19.8047 7.49055 19.6094 6.75119 19.3164C6.01182 19.0234 5.32664 18.6491 4.69563 18.1934C4.06462 17.7376 3.49097 17.2103 2.97469 16.6113C2.45841 16.0124 2.01862 15.3613 1.65531 14.6582C1.292 13.9551 1.01155 13.2129 0.813961 12.4316C0.616373 11.6504 0.517578 10.8398 0.517578 10C0.517578 9.08203 0.632307 8.19661 0.861765 7.34375C1.09122 6.49089 1.41948 5.69336 1.84652 4.95117C2.27357 4.20898 2.78348 3.53516 3.37624 2.92969C3.96901 2.32422 4.63189 1.80339 5.36488 1.36719C6.09787 0.93099 6.87548 0.595703 7.6977 0.361328C8.51993 0.126953 9.38995 0.00651042 10.3078 0C11.2065 0 12.0702 0.117188 12.8988 0.351562C13.7273 0.585938 14.5081 0.924479 15.2411 1.36719C15.9741 1.8099 16.6338 2.33073 17.2202 2.92969C17.8066 3.52865 18.3197 4.20573 18.7595 4.96094C19.1993 5.71615 19.5275 6.51042 19.7442 7.34375C19.961 8.17708 20.0789 9.0625 20.098 10H19.4192C19.3299 9.85026 19.2375 9.70378 19.1419 9.56055C19.0463 9.41732 18.9348 9.2806 18.8073 9.15039C18.7691 8.58398 18.6703 8.03385 18.5109 7.5H6.79899C6.748 7.91667 6.70976 8.33008 6.68426 8.74023C6.65877 9.15039 6.64283 9.57031 6.63646 10C6.63646 10.4232 6.64921 10.8398 6.6747 11.25C6.7002 11.6602 6.74163 12.0768 6.79899 12.5H10.3078C10.3078 12.7083 10.3237 12.9167 10.3556 13.125C10.3875 13.3333 10.4289 13.5417 10.4799 13.75H7.00933C7.08581 14.1211 7.1878 14.528 7.31527 14.9707C7.44275 15.4134 7.60209 15.8464 7.79331 16.2695C7.98452 16.6927 8.20442 17.0898 8.453 17.4609C8.70158 17.832 8.98203 18.1348 9.29435 18.3691ZM18.0424 6.25C17.7939 5.72266 17.5007 5.22786 17.1628 4.76562C16.825 4.30339 16.4426 3.88021 16.0156 3.49609C15.5885 3.11198 15.136 2.77018 14.6579 2.4707C14.1799 2.17122 13.6636 1.92708 13.1091 1.73828C13.3385 2.0638 13.5425 2.40885 13.721 2.77344C13.8994 3.13802 14.062 3.51237 14.2086 3.89648C14.3552 4.2806 14.4795 4.67122 14.5814 5.06836C14.6834 5.46549 14.7727 5.85938 14.8491 6.25H18.0424ZM10.3078 1.25C9.9891 1.25 9.6959 1.33789 9.4282 1.51367C9.1605 1.68945 8.91192 1.92057 8.68246 2.20703C8.453 2.49349 8.24904 2.81576 8.07057 3.17383C7.8921 3.5319 7.72957 3.89974 7.58297 4.27734C7.43637 4.65495 7.31846 5.01302 7.22923 5.35156C7.13999 5.6901 7.06669 5.98958 7.00933 6.25H13.6062C13.5553 5.99609 13.482 5.69661 13.3863 5.35156C13.2907 5.00651 13.1728 4.64844 13.0326 4.27734C12.8924 3.90625 12.733 3.54167 12.5546 3.18359C12.3761 2.82552 12.1721 2.5 11.9427 2.20703C11.7132 1.91406 11.4615 1.68294 11.1874 1.51367C10.9133 1.3444 10.6201 1.25651 10.3078 1.25ZM7.51605 1.72852C6.97427 1.91732 6.45799 2.1582 5.96721 2.45117C5.47642 2.74414 5.02069 3.08594 4.60002 3.47656C4.17935 3.86719 3.79692 4.29362 3.45273 4.75586C3.10854 5.2181 2.81535 5.71615 2.57314 6.25H5.76643C5.83654 5.89193 5.92259 5.51107 6.02457 5.10742C6.12655 4.70378 6.25403 4.30013 6.407 3.89648C6.55997 3.49284 6.72569 3.10547 6.90416 2.73438C7.08263 2.36328 7.28659 2.02799 7.51605 1.72852ZM1.74135 10C1.74135 10.8659 1.85927 11.6992 2.0951 12.5H5.56565C5.51466 12.0833 5.47642 11.6699 5.45093 11.2598C5.42543 10.8496 5.41268 10.4297 5.41268 10C5.41268 9.57682 5.42543 9.16016 5.45093 8.75C5.47642 8.33984 5.51466 7.92318 5.56565 7.5H2.0951C1.85927 8.30078 1.74135 9.13411 1.74135 10ZM2.55402 13.75C2.8026 14.2773 3.09579 14.7721 3.43361 15.2344C3.77142 15.6966 4.15385 16.123 4.5809 16.5137C5.00794 16.9043 5.46686 17.2428 5.95765 17.5293C6.44843 17.8158 6.96471 18.0599 7.50649 18.2617C7.27703 17.9362 7.07307 17.5911 6.8946 17.2266C6.71613 16.862 6.5536 16.4876 6.407 16.1035C6.2604 15.7194 6.13611 15.3288 6.03413 14.9316C5.93215 14.5345 5.83973 14.1406 5.75687 13.75H2.55402ZM17.3636 15.5176C17.7779 15.7324 18.154 15.9961 18.4918 16.3086C18.8296 16.6211 19.1164 16.9727 19.3523 17.3633C19.5881 17.7539 19.7729 18.1706 19.9068 18.6133C20.0406 19.056 20.1044 19.5182 20.098 20H18.8742C18.8742 19.4857 18.7786 19.0007 18.5874 18.5449C18.3962 18.0892 18.1349 17.6921 17.8034 17.3535C17.472 17.015 17.08 16.7448 16.6274 16.543C16.1749 16.3411 15.7001 16.2435 15.2029 16.25C14.693 16.25 14.2181 16.3477 13.7783 16.543C13.3385 16.7383 12.9497 17.0052 12.6119 17.3438C12.2741 17.6823 12.0096 18.0827 11.8184 18.5449C11.6272 19.0072 11.5316 19.4922 11.5316 20H10.3078C10.3078 19.5247 10.3715 19.0658 10.499 18.623C10.6265 18.1803 10.8081 17.7604 11.044 17.3633C11.2798 16.9661 11.5666 16.6146 11.9044 16.3086C12.2422 16.0026 12.6183 15.7389 13.0326 15.5176C12.5546 15.166 12.1849 14.7266 11.9236 14.1992C11.6622 13.6719 11.5316 13.1055 11.5316 12.5C11.5316 11.9857 11.6272 11.5007 11.8184 11.0449C12.0096 10.5892 12.2709 10.1921 12.6024 9.85352C12.9338 9.51497 13.3226 9.24479 13.7688 9.04297C14.2149 8.84115 14.693 8.74349 15.2029 8.75C15.7064 8.75 16.1813 8.84766 16.6274 9.04297C17.0736 9.23828 17.4624 9.50521 17.7939 9.84375C18.1253 10.1823 18.3898 10.5827 18.5874 11.0449C18.785 11.5072 18.8806 11.9922 18.8742 12.5C18.8742 13.099 18.7436 13.6621 18.4822 14.1895C18.2209 14.7168 17.848 15.1595 17.3636 15.5176ZM15.2029 15C15.5407 15 15.8562 14.9349 16.1494 14.8047C16.4426 14.6745 16.7039 14.4954 16.9334 14.2676C17.1628 14.0397 17.3381 13.776 17.4592 13.4766C17.5803 13.1771 17.6441 12.8516 17.6504 12.5C17.6504 12.1549 17.5867 11.8327 17.4592 11.5332C17.3318 11.2337 17.1565 10.9668 16.9334 10.7324C16.7103 10.498 16.4522 10.319 16.159 10.1953C15.8658 10.0716 15.5471 10.0065 15.2029 10C14.8651 10 14.5496 10.0651 14.2564 10.1953C13.9632 10.3255 13.7019 10.5046 13.4724 10.7324C13.2429 10.9603 13.0677 11.224 12.9466 11.5234C12.8255 11.8229 12.7617 12.1484 12.7553 12.5C12.7553 12.8451 12.8191 13.1673 12.9466 13.4668C13.074 13.7663 13.2493 14.0332 13.4724 14.2676C13.6955 14.502 13.9536 14.681 14.2468 14.8047C14.54 14.9284 14.8587 14.9935 15.2029 15Z" fill="#343434" fill-opacity="0.5"/>
</g>
<defs>
<clipPath id="clip0_6_23932">
<rect width="19.5804" height="20" fill="white" transform="translate(0.517578)"/>
</clipPath>
</defs>
</svg>
