<svg width="60" height="60" viewBox="0 0 60 60" fill="none" xmlns="http://www.w3.org/2000/svg">
<g id="solar:ranking-linear">
<g id="Group">
<path id="Vector" d="M5 55C5 51.4625 5 49.695 6.1 48.6C7.1975 47.5 8.965 47.5 12.5 47.5C16.0375 47.5 17.805 47.5 18.9 48.6C20 49.6975 20 51.465 20 55V32.5C20 28.9625 20 27.195 21.1 26.1C22.1975 25 23.965 25 27.5 25H32.5C36.0375 25 37.805 25 38.9 26.1C40 27.1975 40 28.965 40 32.5V55V47.5C40 43.9625 40 42.195 41.1 41.1C42.1975 40 43.965 40 47.5 40C51.0375 40 52.805 40 53.9 41.1C55 42.1975 55 43.965 55 47.5V55" stroke="#5DC973" stroke-width="3" stroke-linecap="round"/>
<path id="Vector_2" d="M27.865 7.5575C28.815 5.85 29.29 5 30 5C30.71 5 31.185 5.85 32.135 7.5575L32.38 7.9975C32.65 8.4825 32.785 8.7225 32.995 8.8825C33.2075 9.0425 33.47 9.1025 33.995 9.22L34.47 9.33C36.315 9.7475 37.2375 9.955 37.4575 10.66C37.6775 11.3675 37.0475 12.1025 35.79 13.5725L35.465 13.9525C35.1075 14.37 34.9275 14.5775 34.8475 14.8375C34.7675 15.0975 34.795 15.375 34.8475 15.9325L34.8975 16.44C35.0875 18.4025 35.1825 19.385 34.61 19.82C34.035 20.2575 33.17 19.8575 31.4425 19.0625L30.9975 18.8575C30.505 18.6325 30.26 18.5175 30 18.5175C29.74 18.5175 29.495 18.6325 29.0025 18.8575L28.5575 19.0625C26.83 19.8575 25.965 20.2575 25.39 19.82C24.815 19.385 24.9125 18.4025 25.1025 16.44L25.1525 15.9325C25.205 15.375 25.2325 15.0975 25.1525 14.8375C25.0725 14.58 24.8925 14.37 24.535 13.9525L24.21 13.5725C22.9525 12.1025 22.3225 11.3675 22.5425 10.66C22.7625 9.955 23.685 9.7475 25.53 9.33L26.005 9.22C26.53 9.1025 26.7925 9.045 27.005 8.8825C27.215 8.7225 27.35 8.4825 27.62 7.9975L27.865 7.5575Z" stroke="#5DC973" stroke-width="3"/>
</g>
</g>
</svg>
