<svg width="30" height="30" viewBox="0 0 30 30" fill="none" xmlns="http://www.w3.org/2000/svg">
<path d="M5 22.5C4.64583 22.5 4.34917 22.38 4.11 22.14C3.87083 21.9 3.75083 21.6033 3.75 21.25C3.75 20.8958 3.87 20.5992 4.11 20.36C4.35 20.1208 4.64667 20.0008 5 20H10C10.3542 20 10.6513 20.12 10.8913 20.36C11.1313 20.6 11.2508 20.8967 11.25 21.25C11.25 21.6042 11.13 21.9012 10.89 22.1412C10.65 22.3812 10.3533 22.5008 10 22.5H5ZM5 16.25C4.64583 16.25 4.34917 16.13 4.11 15.89C3.87083 15.65 3.75083 15.3533 3.75 15C3.75 14.6458 3.87 14.3492 4.11 14.11C4.35 13.8708 4.64667 13.7508 5 13.75H17.5C17.8542 13.75 18.1513 13.87 18.3913 14.11C18.6313 14.35 18.7508 14.6467 18.75 15C18.75 15.3542 18.63 15.6512 18.39 15.8912C18.15 16.1312 17.8533 16.2508 17.5 16.25H5ZM5 10C4.64583 10 4.34917 9.88 4.11 9.64C3.87083 9.4 3.75083 9.10333 3.75 8.75C3.75 8.39583 3.87 8.09917 4.11 7.86C4.35 7.62083 4.64667 7.50083 5 7.5H25C25.3542 7.5 25.6512 7.62 25.8912 7.86C26.1312 8.1 26.2508 8.39667 26.25 8.75C26.25 9.10417 26.13 9.40125 25.89 9.64125C25.65 9.88125 25.3533 10.0008 25 10H5Z" fill="black"/>
</svg>
