<svg width="18" height="18" viewBox="0 0 18 18" fill="none" xmlns="http://www.w3.org/2000/svg">
<path d="M9 2.25C12.7279 2.25 15.75 5.27208 15.75 9C15.75 12.7279 12.7279 15.75 9 15.75C5.27208 15.75 2.25 12.7279 2.25 9C2.25 5.27208 5.27208 2.25 9 2.25Z" stroke="#343434" stroke-width="2" stroke-linecap="round"/>
<path d="M6.75 7.5C6.75 6.25736 7.75733 5.25 9.00001 5.25C10.2427 5.25 11.25 6.25736 11.25 7.5C11.25 8.23605 10.8966 8.88952 10.3502 9.3C9.80386 9.71047 9.37501 9.75 9.00001 10.5" stroke="#343434" stroke-width="2" stroke-linecap="round"/>
<path d="M9 13.5C9.41421 13.5 9.75 13.1642 9.75 12.75C9.75 12.3358 9.41421 12 9 12C8.58579 12 8.25 12.3358 8.25 12.75C8.25 13.1642 8.58579 13.5 9 13.5Z" fill="#343434"/>
</svg>
