<svg width="30" height="30" viewBox="0 0 30 30" fill="none" xmlns="http://www.w3.org/2000/svg">
<path d="M9.65 20.5692L11.8512 19.9342L25.105 6.5217C25.2095 6.41457 25.2677 6.27061 25.267 6.12093C25.2663 5.97124 25.2068 5.82784 25.1012 5.7217L24.3075 4.9192C24.2562 4.86649 24.1949 4.82453 24.1272 4.79577C24.0596 4.767 23.9868 4.75201 23.9133 4.75166C23.8397 4.75131 23.7669 4.76561 23.6989 4.79374C23.631 4.82186 23.5693 4.86323 23.5175 4.91545L10.2987 18.2929L9.65 20.5692ZM25.8787 3.3292L26.6725 4.13295C27.7675 5.2417 27.7775 7.03045 26.6925 8.12795L13.035 21.9504L8.33 23.3055C8.04275 23.3859 7.73533 23.349 7.4752 23.203C7.21508 23.057 7.0235 22.8138 6.9425 22.5267C6.88223 22.3203 6.88136 22.1011 6.94 21.8942L8.30875 17.0942L21.93 3.30795C22.189 3.04715 22.4974 2.84052 22.8371 2.70014C23.1768 2.55975 23.541 2.48841 23.9086 2.49027C24.2761 2.49213 24.6396 2.56716 24.9779 2.71098C25.3162 2.8548 25.6224 3.06578 25.8787 3.3292ZM11.48 4.77045C12.1 4.77045 12.6025 5.2792 12.6025 5.9067C12.6035 6.05503 12.5752 6.20211 12.5193 6.33951C12.4634 6.47692 12.381 6.60196 12.2768 6.70749C12.1725 6.81302 12.0485 6.89696 11.9118 6.95452C11.7751 7.01208 11.6283 7.04213 11.48 7.04295H6.99C5.75 7.04295 4.745 8.06045 4.745 9.3142V22.9467C4.745 24.2017 5.75 25.2192 6.99 25.2192H20.46C21.7 25.2192 22.7063 24.2017 22.7063 22.9467V18.4029C22.7063 17.7754 23.2087 17.2667 23.8288 17.2667C24.4487 17.2667 24.9513 17.7754 24.9513 18.4042V22.9467C24.9513 25.4567 22.94 27.4917 20.46 27.4917H6.99C4.51 27.4917 2.5 25.4567 2.5 22.9467V9.3142C2.5 6.80545 4.51 4.77045 6.99 4.77045H11.48Z" fill="#343434"/>
</svg>
