<svg width="80" height="80" viewBox="0 0 80 80" fill="none" xmlns="http://www.w3.org/2000/svg">
<path d="M51.7688 31.7688L43.5344 40L51.7688 48.2312C52.001 48.4635 52.1853 48.7393 52.311 49.0428C52.4367 49.3462 52.5014 49.6715 52.5014 50C52.5014 50.3285 52.4367 50.6538 52.311 50.9572C52.1853 51.2607 52.001 51.5365 51.7688 51.7688C51.5365 52.001 51.2607 52.1853 50.9573 52.311C50.6538 52.4367 50.3285 52.5014 50 52.5014C49.6715 52.5014 49.3463 52.4367 49.0428 52.311C48.7393 52.1853 48.4635 52.001 48.2313 51.7688L40 43.5344L31.7688 51.7688C31.5365 52.001 31.2607 52.1853 30.9573 52.311C30.6538 52.4367 30.3285 52.5014 30 52.5014C29.6715 52.5014 29.3463 52.4367 29.0428 52.311C28.7393 52.1853 28.4635 52.001 28.2313 51.7688C27.999 51.5365 27.8147 51.2607 27.689 50.9572C27.5633 50.6538 27.4986 50.3285 27.4986 50C27.4986 49.6715 27.5633 49.3462 27.689 49.0428C27.8147 48.7393 27.999 48.4635 28.2313 48.2312L36.4656 40L28.2313 31.7688C27.7622 31.2997 27.4986 30.6634 27.4986 30C27.4986 29.3366 27.7622 28.7003 28.2313 28.2312C28.7004 27.7621 29.3366 27.4986 30 27.4986C30.6634 27.4986 31.2997 27.7621 31.7688 28.2312L40 36.4656L48.2313 28.2312C48.4635 27.999 48.7393 27.8147 49.0428 27.689C49.3463 27.5633 49.6715 27.4986 50 27.4986C50.3285 27.4986 50.6538 27.5633 50.9573 27.689C51.2607 27.8147 51.5365 27.999 51.7688 28.2312C52.001 28.4635 52.1853 28.7393 52.311 29.0428C52.4367 29.3462 52.5014 29.6715 52.5014 30C52.5014 30.3285 52.4367 30.6538 52.311 30.9572C52.1853 31.2607 52.001 31.5365 51.7688 31.7688ZM72.5 40C72.5 46.4279 70.5939 52.7114 67.0228 58.056C63.4516 63.4006 58.3758 67.5662 52.4372 70.0261C46.4986 72.4859 39.964 73.1295 33.6596 71.8755C27.3552 70.6215 21.5643 67.5262 17.019 62.981C12.4738 58.4358 9.37851 52.6448 8.12449 46.3404C6.87047 40.0361 7.51408 33.5014 9.97393 27.5628C12.4338 21.6242 16.5994 16.5484 21.944 12.9772C27.2886 9.40609 33.5721 7.5 40 7.5C48.6168 7.5091 56.878 10.9361 62.9709 17.0291C69.0639 23.122 72.4909 31.3833 72.5 40ZM67.5 40C67.5 34.561 65.8872 29.2442 62.8654 24.7218C59.8437 20.1995 55.5488 16.6747 50.5238 14.5933C45.4988 12.5119 39.9695 11.9673 34.635 13.0284C29.3006 14.0895 24.4005 16.7086 20.5546 20.5546C16.7086 24.4005 14.0895 29.3005 13.0284 34.635C11.9673 39.9695 12.5119 45.4988 14.5933 50.5238C16.6747 55.5488 20.1995 59.8437 24.7218 62.8654C29.2442 65.8872 34.561 67.5 40 67.5C47.2909 67.4917 54.2809 64.5918 59.4363 59.4363C64.5918 54.2808 67.4917 47.2909 67.5 40Z" fill="#343434" fill-opacity="0.5"/>
</svg>
