<svg width="30" height="30" viewBox="0 0 30 30" fill="none" xmlns="http://www.w3.org/2000/svg">
<path d="M24.1008 22.7747C24.1879 22.8618 24.257 22.9653 24.3042 23.0791C24.3513 23.1929 24.3756 23.3148 24.3756 23.438C24.3756 23.5612 24.3513 23.6832 24.3042 23.797C24.257 23.9108 24.1879 24.0142 24.1008 24.1013C24.0137 24.1884 23.9103 24.2575 23.7965 24.3046C23.6827 24.3518 23.5607 24.376 23.4375 24.376C23.3144 24.376 23.1924 24.3518 23.0786 24.3046C22.9648 24.2575 22.8614 24.1884 22.7743 24.1013L15 16.3259L7.22581 24.1013C7.0499 24.2772 6.81131 24.376 6.56253 24.376C6.31375 24.376 6.07516 24.2772 5.89925 24.1013C5.72334 23.9254 5.62451 23.6868 5.62451 23.438C5.62451 23.1892 5.72334 22.9507 5.89925 22.7747L13.6746 15.0005L5.89925 7.2263C5.72334 7.05039 5.62451 6.8118 5.62451 6.56302C5.62451 6.31424 5.72334 6.07565 5.89925 5.89974C6.07516 5.72383 6.31375 5.625 6.56253 5.625C6.81131 5.625 7.0499 5.72383 7.22581 5.89974L15 13.6751L22.7743 5.89974C22.9502 5.72383 23.1888 5.625 23.4375 5.625C23.6863 5.625 23.9249 5.72383 24.1008 5.89974C24.2767 6.07565 24.3756 6.31424 24.3756 6.56302C24.3756 6.8118 24.2767 7.05039 24.1008 7.2263L16.3254 15.0005L24.1008 22.7747Z" fill="#343434"/>
</svg>
