<svg width="100" height="100" viewBox="0 0 100 100" fill="none" xmlns="http://www.w3.org/2000/svg">
<g id="ph:x-circle">
<path id="Vector" d="M64.711 39.7109L54.418 50L64.711 60.2891C65.0013 60.5794 65.2316 60.9241 65.3887 61.3034C65.5459 61.6828 65.6268 62.0894 65.6268 62.5C65.6268 62.9106 65.5459 63.3172 65.3887 63.6966C65.2316 64.0759 65.0013 64.4206 64.711 64.7109C64.4206 65.0013 64.0759 65.2316 63.6966 65.3887C63.3172 65.5459 62.9106 65.6267 62.5 65.6267C62.0894 65.6267 61.6828 65.5459 61.3035 65.3887C60.9241 65.2316 60.5794 65.0013 60.2891 64.7109L50 54.418L39.711 64.7109C39.4206 65.0013 39.0759 65.2316 38.6966 65.3887C38.3172 65.5459 37.9106 65.6267 37.5 65.6267C37.0894 65.6267 36.6828 65.5459 36.3035 65.3887C35.9241 65.2316 35.5794 65.0013 35.2891 64.7109C34.9987 64.4206 34.7684 64.0759 34.6113 63.6966C34.4542 63.3172 34.3733 62.9106 34.3733 62.5C34.3733 62.0894 34.4542 61.6828 34.6113 61.3034C34.7684 60.9241 34.9987 60.5794 35.2891 60.2891L45.5821 50L35.2891 39.7109C34.7027 39.1246 34.3733 38.3293 34.3733 37.5C34.3733 36.6707 34.7027 35.8754 35.2891 35.2891C35.8755 34.7027 36.6708 34.3733 37.5 34.3733C38.3293 34.3733 39.1246 34.7027 39.711 35.2891L50 45.582L60.2891 35.2891C60.5794 34.9987 60.9241 34.7684 61.3035 34.6113C61.6828 34.4541 62.0894 34.3733 62.5 34.3733C62.9106 34.3733 63.3172 34.4541 63.6966 34.6113C64.0759 34.7684 64.4206 34.9987 64.711 35.2891C65.0013 35.5794 65.2316 35.9241 65.3887 36.3034C65.5459 36.6828 65.6268 37.0894 65.6268 37.5C65.6268 37.9106 65.5459 38.3172 65.3887 38.6966C65.2316 39.0759 65.0013 39.4206 64.711 39.7109ZM90.625 50C90.625 58.0349 88.2424 65.8893 83.7785 72.57C79.3145 79.2508 72.9698 84.4578 65.5465 87.5326C58.1233 90.6074 49.955 91.4119 42.0745 89.8444C34.194 88.2769 26.9553 84.4077 21.2738 78.7262C15.5923 73.0447 11.7231 65.806 10.1556 57.9255C8.58809 50.0451 9.3926 41.8767 12.4674 34.4535C15.5422 27.0302 20.7492 20.6855 27.43 16.2215C34.1107 11.7576 41.9652 9.375 50 9.375C60.7709 9.38637 71.0975 13.6701 78.7137 21.2863C86.3299 28.9025 90.6136 39.2291 90.625 50ZM84.375 50C84.375 43.2013 82.359 36.5552 78.5818 30.9023C74.8046 25.2493 69.436 20.8434 63.1548 18.2416C56.8736 15.6399 49.9619 14.9591 43.2938 16.2855C36.6257 17.6119 30.5007 20.8858 25.6932 25.6932C20.8858 30.5006 17.6119 36.6257 16.2855 43.2938C14.9592 49.9619 15.6399 56.8735 18.2417 63.1547C20.8434 69.436 25.2494 74.8046 30.9023 78.5818C36.5552 82.3589 43.2013 84.375 50 84.375C59.1137 84.3647 67.8511 80.7397 74.2954 74.2954C80.7397 67.8511 84.3647 59.1136 84.375 50Z" fill="#343434" fill-opacity="0.5"/>
</g>
</svg>
