<svg width="73" height="16" viewBox="0 0 73 16" fill="none" xmlns="http://www.w3.org/2000/svg">
<path d="M3.968 2.944H5.648V4.608C5.648 7.952 4.24 11.36 1.52 12.64L0.32 10.96C2.768 9.808 3.968 7.04 3.968 4.608V2.944ZM4.416 2.944H6.096V4.608C6.096 6.848 7.248 9.472 9.68 10.592L8.512 12.272C5.792 11.008 4.416 7.76 4.416 4.608V2.944ZM0.896 2.032H9.024V3.776H0.896V2.032ZM10.112 0.608H12.256V15.424H10.112V0.608ZM11.776 6.256H14.4V8.016H11.776V6.256ZM15.3748 7.568H28.7828V9.264H15.3748V7.568ZM21.0228 5.344H23.1348V8.224H21.0228V5.344ZM16.9908 4.672H27.2628V6.352H16.9908V4.672ZM16.9908 1.248H27.1828V2.912H19.1028V5.744H16.9908V1.248ZM22.0308 10C25.2308 10 27.1668 10.976 27.1668 12.72C27.1668 14.464 25.2308 15.44 22.0308 15.44C18.8307 15.44 16.8788 14.464 16.8788 12.72C16.8788 10.976 18.8307 10 22.0308 10ZM22.0308 11.6C20.0468 11.6 19.0388 11.968 19.0388 12.72C19.0388 13.488 20.0468 13.824 22.0308 13.824C24.0148 13.824 25.0228 13.488 25.0228 12.72C25.0228 11.968 24.0148 11.6 22.0308 11.6ZM30.0935 12.064H43.5015V13.792H30.0935V12.064ZM35.7095 9.264H37.8375V12.768H35.7095V9.264ZM31.5975 1.568H41.9975V6.496H33.7415V8.992H31.6295V4.832H39.8855V3.248H31.5975V1.568ZM31.6295 8.144H42.3335V9.856H31.6295V8.144ZM46.1723 1.968H55.5643V3.648H46.1723V1.968ZM44.8123 11.76H58.2043V13.488H44.8123V11.76ZM54.4443 1.968H56.5563V3.728C56.5563 5.808 56.5563 7.824 56.0283 10.864L53.9003 10.688C54.4443 7.84 54.4443 5.728 54.4443 3.728V1.968ZM69.691 0.624H71.835V11.264H69.691V0.624ZM61.963 13.472H72.203V15.168H61.963V13.472ZM61.963 10.192H64.091V14.16H61.963V10.192ZM63.771 1.552C66.043 1.552 67.787 3.12 67.787 5.312C67.787 7.488 66.043 9.072 63.771 9.072C61.499 9.072 59.739 7.488 59.739 5.312C59.739 3.12 61.499 1.552 63.771 1.552ZM63.771 3.392C62.667 3.392 61.819 4.096 61.819 5.312C61.819 6.512 62.667 7.216 63.771 7.216C64.859 7.216 65.707 6.512 65.707 5.312C65.707 4.096 64.859 3.392 63.771 3.392Z" fill="#343434" fill-opacity="0.5"/>
</svg>
