<?xml version="1.0" standalone="no"?>
<!DOCTYPE svg PUBLIC "-//W3C//DTD SVG 20010904//EN"
 "http://www.w3.org/TR/2001/REC-SVG-20010904/DTD/svg10.dtd">
<svg version="1.0" xmlns="http://www.w3.org/2000/svg"
 width="1624.000000pt" height="561.000000pt" viewBox="0 0 1624.000000 561.000000"
 preserveAspectRatio="xMidYMid meet">

<g transform="translate(0.000000,561.000000) scale(0.100000,-0.100000)"
fill="#000000" stroke="none">
<path d="M0 2805 l0 -2805 8120 0 8120 0 0 2805 0 2805 -8120 0 -8120 0 0
-2805z m13970 -105 l0 -1450 -1080 0 -1080 0 0 -210 0 -210 -1165 0 -1165 0 0
1455 0 1455 1085 0 1085 0 0 205 0 205 1160 0 1160 0 0 -1450z m-9942 1178 c5
-8 10 -94 11 -204 2 -212 0 -218 -61 -212 l-33 3 -3 88 -3 87 -65 0 -65 0 3
38 3 37 63 3 c46 2 62 7 62 17 0 12 -15 15 -65 15 l-65 0 0 34 c0 40 11 46 81
46 45 0 49 2 49 23 0 13 3 27 7 30 11 12 70 8 81 -5z m660 0 c16 -16 16 -251
1 -280 -8 -15 -8 -22 0 -28 8 -4 11 -32 9 -76 l-3 -69 -147 -3 c-85 -1 -148
-7 -148 -12 0 -5 65 -11 153 -12 l152 -3 3 -32 3 -33 -201 0 -201 0 3 78 3 77
143 3 c191 4 189 22 -4 22 l-145 0 3 33 3 32 145 3 145 2 -3 142 c-2 77 -1
147 2 154 7 17 68 18 84 2z m938 -18 c6 -27 10 -29 58 -32 45 -3 51 -6 54 -26
5 -35 -15 -52 -64 -52 -36 0 -44 -3 -44 -18 0 -21 54 -73 93 -90 32 -14 34
-28 7 -60 -24 -29 -55 -22 -116 24 -42 32 -44 33 -54 14 -12 -23 -82 -70 -104
-70 -18 0 -55 51 -49 68 3 6 10 12 17 12 22 0 93 69 98 94 5 24 2 25 -46 28
l-51 3 -3 38 -3 37 55 0 c52 0 56 2 56 23 0 32 7 37 52 37 35 0 39 -3 44 -30z
m232 -37 c3 -62 3 -62 35 -65 29 -3 32 -6 35 -40 3 -37 3 -38 -32 -38 l-36 0
0 -54 c0 -30 -3 -61 -6 -70 -7 -19 -64 -22 -82 -4 -13 13 -18 319 -5 332 4 4
25 6 48 4 l40 -3 3 -62z m1080 55 c16 -16 17 -520 2 -549 -13 -24 -75 -27 -84
-3 -3 9 -6 80 -6 159 l0 144 -47 3 c-48 3 -48 3 -51 41 l-3 37 50 0 51 0 0 83
c0 46 3 87 7 90 11 12 68 8 81 -5z m-1890 -20 c7 -7 12 -26 12 -44 0 -42 58
-95 123 -114 26 -7 50 -16 53 -21 9 -16 -26 -69 -46 -69 -34 0 -127 47 -155
79 l-28 30 -46 -40 c-25 -22 -58 -43 -73 -46 -16 -3 -31 -10 -34 -14 -8 -13
-50 -11 -62 4 -6 6 -13 24 -17 38 -6 23 -3 26 46 38 61 16 129 76 129 115 0
45 10 56 49 56 20 0 42 -5 49 -12z m-1370 -126 l3 -114 94 4 c99 3 105 1 105
-43 0 -30 -40 -39 -171 -39 l-119 0 0 148 c0 82 3 152 7 156 4 4 23 6 43 4
l35 -3 3 -113z m870 81 c3 -28 0 -33 -17 -33 -18 0 -21 -6 -21 -50 l0 -50 36
0 c34 0 35 -1 32 -32 -3 -30 -7 -33 -43 -40 -22 -4 -100 -7 -173 -7 l-133 -1
3 38 c3 32 7 37 31 40 25 3 27 6 27 53 0 46 -2 49 -25 49 -21 0 -25 5 -25 28
0 16 3 32 7 36 4 3 72 5 152 4 l146 -3 3 -32z m2126 31 c12 -5 16 -21 16 -66
0 -112 37 -203 100 -248 l30 -22 -21 -29 c-11 -16 -29 -29 -39 -29 -21 0 -81
53 -99 88 -16 30 -22 28 -49 -18 -12 -21 -38 -51 -58 -67 l-37 -27 -28 34
c-16 19 -29 38 -29 42 0 4 14 14 30 23 58 30 110 155 110 264 0 26 3 51 7 54
8 9 46 9 67 1z m-276 -89 c2 -44 -2 -117 -9 -162 l-12 -83 -43 0 c-46 0 -61
17 -44 50 6 10 10 59 10 109 l0 90 -157 3 c-157 3 -158 3 -161 26 -8 53 -8 53
210 50 l203 -3 3 -80z m-3961 46 c49 -23 73 -62 73 -121 0 -50 -24 -100 -79
-162 -23 -25 -41 -49 -41 -52 0 -3 28 -6 63 -6 34 0 67 -4 72 -8 6 -4 10 -22
11 -40 0 -42 -6 -43 -176 -40 l-135 3 -3 27 c-3 23 10 40 72 101 109 108 133
156 106 208 -15 26 -70 25 -104 -2 l-27 -21 -25 23 c-30 28 -30 34 2 62 55 48
124 58 191 28z m330 7 c74 -31 103 -93 103 -218 0 -153 -52 -230 -155 -230
-46 0 -60 5 -89 30 -68 60 -89 227 -43 332 26 58 37 70 82 86 41 14 69 14 102
0z m361 -15 c15 -10 35 -36 46 -57 29 -58 11 -122 -59 -208 l-54 -67 72 -3 72
-3 0 -40 0 -40 -155 0 -155 0 -3 24 c-3 19 15 42 81 110 113 114 137 163 100
203 -21 24 -64 23 -96 -2 -29 -23 -44 -19 -70 15 -17 24 -17 24 16 49 18 14
44 30 57 35 37 16 117 7 148 -16z m370 -105 l3 -127 27 -3 c23 -3 27 -8 30
-40 3 -36 2 -38 -27 -38 -31 0 -31 0 -31 -56 l0 -55 -42 3 -43 3 -3 53 -3 52
-95 0 -94 0 0 31 c0 26 51 121 157 287 12 20 21 23 66 20 l52 -3 3 -127z
m2702 -128 l0 -90 113 0 c123 0 137 -5 137 -52 l0 -28 -256 0 -255 0 3 38 3
37 83 3 82 3 0 89 0 90 45 0 45 0 0 -90z m-946 14 c3 -9 6 -27 6 -40 0 -24 -1
-24 -105 -24 l-105 0 0 -84 c0 -106 -4 -116 -44 -116 -49 0 -56 14 -56 112 l0
87 -102 3 c-99 3 -103 4 -106 26 -7 50 2 52 263 52 212 0 244 -2 249 -16z
m604 -146 l3 -98 -191 0 -190 0 0 100 0 100 188 -2 187 -3 3 -97z m-2124 86
c12 -4 16 -20 16 -55 l0 -48 143 -3 142 -3 3 -37 3 -38 -190 0 -191 0 0 95 0
95 29 0 c16 0 36 -3 45 -6z m1746 -438 l0 -65 38 -3 c35 -3 37 -5 37 -38 0
-33 -2 -35 -37 -38 l-37 -3 -3 -62 c-3 -61 -3 -62 -33 -63 -56 -1 -55 -4 -55
165 0 87 3 161 7 164 3 4 24 7 45 7 l38 0 0 -64z m-1360 35 c5 -11 10 -40 10
-65 l0 -46 139 0 c149 0 166 -5 159 -52 l-3 -23 -195 0 -195 0 -3 89 c-2 49
-1 95 2 103 8 21 73 16 86 -6z m814 13 c10 -4 16 -18 16 -35 l0 -29 -155 0
c-97 0 -155 -4 -155 -10 0 -6 51 -10 134 -10 74 0 141 -3 150 -6 10 -4 16 -18
16 -35 l0 -29 -150 0 c-202 0 -200 -19 3 -22 l152 -3 3 -32 3 -33 -200 0 -201
0 0 118 c0 65 3 122 7 125 8 9 356 9 377 1z m-1207 -16 c5 -7 10 -26 11 -43 4
-43 69 -100 132 -115 28 -7 50 -16 50 -21 0 -26 -32 -69 -51 -69 -31 0 -122
46 -154 79 l-29 29 -45 -40 c-25 -22 -58 -42 -73 -45 -16 -3 -31 -10 -34 -14
-8 -13 -50 -11 -62 4 -6 6 -13 24 -17 39 -7 28 -5 30 62 43 42 8 113 77 113
109 0 45 10 56 50 56 21 0 42 -6 47 -12z m1601 -36 c6 -39 -31 -124 -73 -168
-39 -41 -126 -95 -172 -106 -17 -5 -28 1 -43 22 -11 15 -20 32 -20 37 0 4 21
17 48 27 26 11 64 31 84 45 32 22 43 36 66 83 2 4 -36 9 -85 10 -83 3 -88 4
-91 26 -8 51 -3 53 145 50 136 -3 138 -3 141 -26z m-2778 -32 l0 -40 -95 0
-95 0 0 -50 0 -50 80 0 80 0 0 -40 0 -40 -80 0 -80 0 0 -55 0 -54 97 -3 96 -3
0 -40 0 -40 -144 0 -144 0 -3 228 -2 227 145 0 145 0 0 -40z m316 20 c44 -28
61 -78 44 -134 -7 -22 -17 -44 -24 -49 -7 -5 -5 -13 10 -25 30 -26 44 -56 44
-97 0 -97 -63 -135 -226 -135 l-104 0 0 230 0 230 111 0 c95 0 117 -3 145 -20z
m364 0 c21 -11 41 -23 44 -28 6 -10 -32 -75 -42 -70 -84 37 -100 40 -126 23
-14 -10 -26 -23 -26 -30 0 -18 43 -47 103 -71 27 -10 62 -34 78 -52 24 -27 29
-41 29 -85 0 -44 -5 -58 -29 -85 -38 -41 -68 -52 -139 -52 -62 0 -144 35 -150
63 -2 8 8 27 21 43 l24 28 57 -30 c53 -27 58 -28 83 -14 19 11 28 24 28 40 0
20 -13 30 -75 61 -96 48 -130 87 -130 149 0 49 18 79 65 110 41 27 132 27 185
0z m1250 -205 c4 -20 8 -26 13 -17 6 9 69 12 258 12 l249 0 0 -40 0 -40 -257
2 c-247 3 -257 4 -263 23 -5 19 -13 20 -260 20 l-255 0 -3 23 c-8 53 -12 53
260 50 l253 -3 5 -30z m-544 -40 c12 -50 3 -55 -106 -55 l-100 0 0 -88 c0 -95
-7 -112 -50 -112 -43 0 -50 17 -50 112 l0 87 -102 3 c-99 3 -103 4 -106 26 -7
49 2 51 264 52 l244 0 6 -25z m1478 -23 c55 -30 69 -50 69 -97 0 -51 -12 -69
-64 -96 -54 -27 -193 -27 -254 1 -51 23 -65 44 -65 97 1 78 60 112 193 113 65
0 95 -4 121 -18z m-1058 -31 c80 -36 81 -122 3 -162 -50 -25 -213 -27 -264 -3
-92 43 -93 123 -2 168 48 23 209 21 263 -3z m10153 4 c14 -8 14 -460 1 -884
-6 -174 -11 -481 -13 -683 -1 -201 -6 -370 -10 -375 -10 -9 -124 -8 -161 1
-22 5 -23 9 -29 193 -4 104 -9 359 -12 568 -3 209 -8 426 -11 482 -6 100 -6
102 -23 81 -23 -28 -46 -18 -55 22 -3 18 -6 150 -6 294 0 295 0 294 71 307 49
9 232 5 248 -6z m520 -19 c13 -16 14 -396 0 -616 -5 -80 -11 -404 -14 -720 -5
-638 0 -600 -71 -600 -40 0 -87 17 -80 28 8 13 -31 494 -42 523 -15 37 -21
128 -27 394 -3 132 -8 274 -11 316 l-6 76 -30 -11 c-23 -9 -31 -8 -38 4 -15
24 -13 573 3 592 19 24 32 26 173 27 99 1 134 -2 143 -13z m-10089 -87 l0 -90
-42 3 -43 3 -3 48 -3 47 -148 0 c-161 0 -161 0 -161 56 l0 24 200 0 200 0 0
-91z m10588 -189 c2 -151 -2 -367 -7 -480 -6 -113 -14 -414 -17 -670 -4 -280
-11 -470 -17 -477 -5 -7 -26 -13 -45 -13 -26 0 -33 3 -25 11 8 8 6 16 -8 30
-17 17 -28 84 -18 114 6 19 -1 89 -9 94 -10 6 -25 98 -43 259 -7 56 -15 102
-20 102 -11 0 -19 105 -25 365 -3 132 -10 244 -15 249 -5 6 -9 30 -9 54 0 39
-1 42 -16 28 -19 -19 -26 -20 -42 -4 -9 9 -12 89 -12 297 0 252 2 287 17 303
15 17 31 18 162 16 l146 -3 3 -275z m-13050 -392 c3 -53 4 -56 32 -62 40 -8
40 -36 0 -36 l-29 0 -3 -82 c-2 -66 -6 -83 -18 -83 -13 0 -15 25 -18 150 -3
156 0 179 21 173 7 -3 13 -27 15 -60z m254 50 c22 -6 47 -22 55 -35 14 -21 14
-26 -1 -48 -23 -35 -20 -55 8 -55 25 0 51 -22 39 -33 -3 -4 -71 -7 -150 -7
-132 0 -144 1 -141 18 2 11 14 18 36 20 34 3 43 25 16 40 -10 6 -14 20 -12 43
2 27 10 37 38 51 42 21 61 22 112 6z m373 -124 l0 -129 -77 -3 c-106 -4 -100
-22 7 -22 69 0 85 -3 85 -15 0 -8 -6 -15 -12 -15 -27 -1 -164 -2 -180 -1 -14
1 -18 10 -18 46 l0 45 83 2 82 2 -82 3 c-75 3 -83 6 -83 23 0 18 7 20 83 20
l83 0 -4 40 c-4 38 -6 40 -39 40 -27 0 -34 4 -31 18 2 11 14 18 36 20 26 3 32
8 32 26 0 26 9 38 24 33 7 -2 11 -51 11 -133z m323 38 c2 -76 0 -93 -13 -98
-13 -5 -13 -9 2 -34 15 -26 15 -30 0 -53 -28 -44 -146 -53 -194 -14 -18 14
-16 57 4 79 13 14 31 18 90 18 71 0 73 1 73 25 0 22 -4 25 -34 25 -21 0 -36
-6 -40 -15 -4 -11 -22 -15 -71 -15 l-65 0 0 80 0 80 70 0 c56 0 70 -3 70 -15
0 -10 11 -15 35 -15 31 0 35 3 35 26 0 19 4 25 18 22 14 -3 17 -17 20 -96z
m297 -62 c0 -138 -2 -155 -17 -158 -15 -3 -18 8 -20 85 -2 70 -6 88 -18 89 -8
1 -25 2 -37 3 -13 1 -23 7 -23 16 0 11 11 15 40 15 l40 0 0 56 c0 47 3 55 18
52 15 -3 17 -19 17 -158z m673 38 c-3 -101 -6 -123 -18 -123 -10 0 -16 13 -18
43 -3 41 -4 42 -40 42 -20 0 -46 -7 -56 -15 -25 -19 -59 -19 -96 0 -27 14 -30
20 -30 65 0 41 4 52 26 69 31 25 63 27 90 6 10 -8 38 -15 62 -15 34 0 42 3 42
18 0 22 8 32 27 32 11 0 13 -24 11 -122z m240 -37 c2 -142 1 -152 -15 -149
-14 2 -19 16 -24 58 -3 30 -6 52 -7 48 -1 -4 -13 -3 -27 2 -20 8 -30 4 -57
-20 -35 -32 -68 -39 -68 -15 0 8 11 22 24 31 29 18 61 68 68 107 5 26 4 27
-39 27 -37 0 -44 3 -41 18 3 14 14 17 63 17 58 0 60 -1 63 -27 5 -42 22 -33
22 10 0 41 7 55 24 49 7 -2 12 -60 14 -156z m80 14 c3 -153 -1 -185 -23 -185
-13 0 -15 26 -15 166 0 152 1 165 18 162 15 -3 17 -19 20 -143z m280 -17 c-3
-137 -5 -163 -18 -163 -13 0 -15 25 -18 150 -3 160 -1 175 23 175 13 0 15 -21
13 -162z m212 147 c0 -11 12 -15 49 -15 28 0 52 -4 55 -8 10 -16 -11 -31 -49
-34 -42 -4 -42 -4 28 -30 15 -6 27 -17 27 -24 0 -8 5 -14 10 -14 6 0 10 -7 10
-15 0 -9 -9 -15 -23 -15 -21 0 -23 -4 -23 -47 l1 -48 -87 -3 c-119 -4 -113
-22 7 -22 76 0 95 -3 95 -14 0 -18 -30 -22 -143 -18 l-88 3 3 42 3 42 90 6 90
5 -92 2 c-95 2 -111 10 -80 41 10 10 9 12 -3 11 -29 -4 -40 0 -40 15 0 8 5 15
10 15 6 0 10 6 10 14 0 7 12 18 28 24 69 26 69 26 22 31 -62 8 -62 35 0 39 26
2 48 10 53 18 11 19 37 18 37 -1z m408 -47 c2 -46 6 -57 22 -61 26 -7 26 -37
0 -37 -17 0 -19 -8 -22 -77 -3 -65 -6 -78 -20 -81 -17 -3 -18 10 -18 158 0
148 1 161 18 158 13 -2 18 -15 20 -60z m312 -98 c0 -153 -1 -160 -20 -160 -19
0 -20 7 -20 153 0 85 3 157 7 160 3 4 12 7 20 7 10 0 13 -33 13 -160z m-2970
114 c0 -18 12 -38 36 -61 22 -20 34 -39 30 -48 -8 -21 -21 -19 -53 9 l-28 24
-33 -29 c-18 -16 -37 -29 -43 -29 -24 0 -17 30 16 63 25 25 35 44 35 66 0 24
4 31 20 31 15 0 20 -7 20 -26z m614 10 c3 -9 6 -29 6 -45 0 -40 22 -89 53
-118 25 -22 27 -51 3 -51 -14 0 -66 47 -66 60 0 20 -15 9 -38 -25 -22 -35 -54
-46 -68 -24 -3 6 5 23 19 37 37 40 57 86 57 130 0 50 20 72 34 36z m2466 -68
c0 -93 -5 -116 -26 -116 -11 0 -14 21 -14 100 0 93 1 100 20 100 18 0 20 -7
20 -84z m-3693 54 c1 -8 4 -36 8 -62 4 -34 14 -54 39 -79 32 -31 38 -59 12
-59 -15 1 -50 30 -63 54 -9 17 -12 15 -38 -18 -27 -35 -57 -46 -71 -25 -3 6 7
25 23 42 38 41 53 78 53 128 0 33 3 40 17 37 10 -2 19 -10 20 -18z m1616 6
c25 -20 22 -68 -8 -96 l-25 -24 22 -23 c28 -30 34 -29 47 7 7 20 17 30 30 30
25 0 26 -15 6 -54 -14 -26 -14 -31 0 -46 29 -32 11 -60 -24 -38 -15 9 -28 9
-60 -2 -71 -23 -127 17 -114 83 3 14 11 32 19 38 8 7 14 30 14 57 0 70 45 104
93 68z m945 -28 c5 -61 -52 -149 -119 -184 -24 -12 -29 -11 -40 2 -11 13 -10
18 6 26 11 6 39 31 63 55 30 31 42 52 42 73 0 30 -1 30 -55 30 -41 0 -55 4
-55 14 0 21 17 25 90 23 l65 -2 3 -37z m630 -20 c5 -87 -44 -189 -83 -174 -14
5 -12 12 8 49 14 24 28 67 32 96 6 47 5 53 -11 49 -12 -2 -21 -19 -29 -53 -14
-58 -51 -125 -70 -125 -22 0 -25 27 -6 52 10 13 25 47 34 76 l15 52 -29 0
c-26 0 -39 17 -23 32 3 3 40 5 82 4 l77 -1 3 -57z m317 42 c0 -10 -12 -16 -37
-18 -30 -3 -38 -7 -38 -23 0 -30 37 -97 65 -115 14 -9 21 -22 18 -30 -9 -24
-40 -15 -71 20 l-30 35 -23 -34 c-26 -38 -57 -51 -66 -29 -3 9 7 29 26 48 22
23 33 45 37 79 l7 47 -31 0 c-17 0 -34 5 -37 10 -14 23 10 31 93 28 69 -2 87
-6 87 -18z m-3116 -156 c18 -4 39 -17 48 -30 14 -22 14 -26 -1 -48 -25 -39
-116 -51 -173 -24 -31 14 -43 59 -23 83 18 22 89 31 149 19z m1479 -32 l3 -31
92 -3 c78 -3 92 -6 95 -20 3 -16 -7 -18 -112 -18 l-116 0 0 48 c0 27 3 52 7
56 14 13 28 -1 31 -32z m1816 -15 c16 -25 -16 -56 -38 -37 -19 15 -20 32 -4
48 15 15 28 11 42 -11z"/>
<path d="M12138 4043 c6 -2 18 -2 25 0 6 3 1 5 -13 5 -14 0 -19 -2 -12 -5z"/>
<path d="M12188 4043 c6 -2 18 -2 25 0 6 3 1 5 -13 5 -14 0 -19 -2 -12 -5z"/>
<path d="M12170 3960 c0 -18 4 -29 10 -25 6 3 10 15 10 25 0 10 -4 22 -10 25
-6 4 -10 -7 -10 -25z"/>
<path d="M11810 3920 l0 -60 35 0 c19 0 35 5 35 10 0 6 -9 10 -19 10 -28 0
-37 20 -12 27 27 7 27 23 0 23 -27 0 -19 24 9 28 35 5 25 22 -13 22 l-35 0 0
-60z"/>
<path d="M11917 3973 c-4 -3 -7 -30 -7 -60 l0 -53 34 0 c18 0 38 6 43 13 10
14 10 78 -1 95 -8 13 -58 16 -69 5z m51 -31 c2 -7 -3 -12 -12 -12 -9 0 -16 7
-16 16 0 17 22 14 28 -4z m2 -40 c0 -14 -11 -21 -26 -15 -8 3 -11 9 -8 14 7
11 34 12 34 1z"/>
<path d="M12032 3968 c-19 -19 -14 -36 13 -54 27 -18 25 -34 -6 -34 -10 0 -19
-5 -19 -11 0 -17 62 -6 74 14 9 15 6 22 -16 41 -33 26 -35 36 -8 36 11 0 20 5
20 10 0 14 -43 13 -58 -2z"/>
<path d="M13606 3973 c-3 -3 -20 -8 -36 -10 -69 -7 -139 -68 -157 -134 -9 -37
-11 -87 -3 -96 3 -3 7 -19 9 -32 0 -5 19 -27 40 -49 67 -67 160 -76 236 -21
25 18 45 37 45 43 0 5 -12 -1 -27 -15 -39 -34 -62 -44 -105 -48 -51 -4 -120
29 -154 74 -33 43 -42 121 -19 164 19 36 63 81 80 81 7 0 15 4 17 10 5 14 73
20 111 9 40 -11 102 -64 115 -100 10 -26 10 -97 -1 -139 -5 -20 -4 -19 7 5 8
17 12 34 9 38 -3 4 0 14 7 22 8 9 8 15 0 20 -6 3 -8 10 -5 15 7 11 -15 90 -24
90 -3 0 -18 11 -32 24 -21 20 -56 38 -79 41 -3 0 -10 3 -16 7 -6 4 -14 5 -18
1z"/>
<path d="M13490 3870 c0 -5 5 -10 11 -10 5 0 7 5 4 10 -3 6 -8 10 -11 10 -2 0
-4 -4 -4 -10z"/>
<path d="M13690 3870 c0 -5 5 -10 10 -10 6 0 10 5 10 10 0 6 -4 10 -10 10 -5
0 -10 -4 -10 -10z"/>
<path d="M13528 3863 c7 -3 16 -2 19 1 4 3 -2 6 -13 5 -11 0 -14 -3 -6 -6z"/>
<path d="M13623 3863 c9 -2 23 -2 30 0 6 3 -1 5 -18 5 -16 0 -22 -2 -12 -5z"/>
<path d="M13550 3820 c0 -5 5 -10 10 -10 6 0 10 5 10 10 0 6 -4 10 -10 10 -5
0 -10 -4 -10 -10z"/>
<path d="M13580 3812 c0 -19 -4 -22 -20 -17 -14 5 -20 2 -20 -9 0 -10 9 -16
25 -16 16 0 25 6 25 15 0 20 10 19 26 -2 12 -17 14 -17 28 2 13 17 13 22 1 34
-12 12 -17 12 -30 1 -14 -12 -18 -11 -26 1 -7 11 -9 9 -9 -9z"/>
<path d="M11992 3686 l0 -35 74 1 c59 0 74 3 74 15 0 10 -10 14 -37 13 -62 -3
-83 -1 -83 10 0 5 13 7 30 4 23 -5 30 -3 30 10 0 12 -10 16 -44 16 -43 0 -44
0 -44 -34z"/>
<path d="M12102 3708 c7 -19 38 -22 38 -4 0 10 -9 16 -21 16 -12 0 -19 -5 -17
-12z"/>
<path d="M12160 3705 c12 -15 30 -12 30 6 0 5 -10 9 -21 9 -18 0 -19 -2 -9
-15z"/>
<path d="M12198 3702 c-4 -14 -14 -22 -27 -22 -13 0 -21 -6 -21 -16 0 -13 7
-15 32 -10 40 8 39 6 29 41 -7 28 -8 28 -13 7z"/>
<path d="M11912 3648 c6 -16 48 -18 48 -1 0 7 -11 13 -26 13 -15 0 -24 -5 -22
-12z"/>
<path d="M12005 3621 c23 -9 82 -7 92 2 3 4 -20 7 -53 6 -38 0 -52 -3 -39 -8z"/>
<path d="M12134 3622 c5 -8 76 -4 76 4 0 2 -18 4 -41 4 -22 0 -38 -4 -35 -8z"/>
<path d="M10010 3540 c0 -18 4 -29 10 -25 6 3 10 15 10 25 0 10 -4 22 -10 25
-6 4 -10 -7 -10 -25z"/>
<path d="M9650 3500 l0 -60 35 0 c19 0 35 5 35 10 0 6 -9 10 -19 10 -28 0 -37
20 -12 27 27 7 27 23 0 23 -27 0 -19 24 9 28 35 5 25 22 -13 22 l-35 0 0 -60z"/>
<path d="M9750 3501 c0 -60 0 -61 28 -61 47 0 61 18 53 70 -6 43 -7 45 -43 48
l-38 3 0 -60z m58 21 c2 -7 -3 -12 -12 -12 -9 0 -16 7 -16 16 0 17 22 14 28
-4z m2 -40 c0 -14 -11 -21 -26 -15 -8 3 -11 9 -8 14 7 11 34 12 34 1z"/>
<path d="M9872 3548 c-19 -19 -14 -36 13 -54 27 -18 25 -34 -6 -34 -10 0 -19
-5 -19 -11 0 -17 62 -6 74 14 9 15 6 22 -16 41 -33 26 -35 36 -8 36 11 0 20 5
20 10 0 14 -43 13 -58 -2z"/>
<path d="M11397 3542 c-44 -11 -69 -25 -98 -54 -21 -22 -39 -48 -39 -59 0 -10
-4 -19 -9 -19 -14 0 -5 -100 11 -131 37 -71 114 -112 191 -103 72 9 156 86
159 146 1 13 5 28 10 35 5 6 5 14 -2 18 -6 3 -8 11 -4 16 14 24 -38 119 -66
119 -5 0 -10 4 -10 9 0 8 -30 22 -55 25 -5 1 -14 4 -20 7 -5 3 -36 -1 -68 -9z
m127 -31 c65 -41 89 -100 76 -186 -8 -56 -54 -107 -109 -124 -53 -15 -79 -14
-127 8 -96 44 -131 157 -75 241 27 41 71 74 107 82 37 8 96 -2 128 -21z"/>
<path d="M11330 3450 c0 -5 5 -10 10 -10 6 0 10 5 10 10 0 6 -4 10 -10 10 -5
0 -10 -4 -10 -10z"/>
<path d="M11465 3450 c-19 -8 -19 -9 3 -9 12 -1 22 4 22 9 0 6 -1 10 -2 9 -2
0 -12 -4 -23 -9z"/>
<path d="M11530 3450 c0 -5 5 -10 10 -10 6 0 10 5 10 10 0 6 -4 10 -10 10 -5
0 -10 -4 -10 -10z"/>
<path d="M11368 3443 c7 -3 16 -2 19 1 4 3 -2 6 -13 5 -11 0 -14 -3 -6 -6z"/>
<path d="M11386 3394 c-12 -31 -6 -44 19 -44 16 0 25 6 25 15 0 20 10 19 26
-2 12 -17 14 -17 28 2 13 17 13 22 1 34 -12 12 -17 12 -30 1 -14 -12 -18 -11
-26 1 -7 11 -9 9 -9 -9 0 -15 -5 -22 -12 -19 -7 2 -12 11 -10 21 4 21 -4 21
-12 0z"/>
<path d="M11820 3526 c0 -14 5 -28 11 -32 8 -4 7 -9 -2 -16 -11 -8 -11 -9 1
-5 16 4 48 53 40 60 -3 3 -15 8 -27 11 -20 6 -23 4 -23 -18z"/>
<path d="M11896 3541 c-4 -7 -5 -15 -2 -18 9 -9 19 4 14 18 -4 11 -6 11 -12 0z"/>
<path d="M11966 3542 c-3 -5 0 -14 7 -20 15 -12 87 -13 87 -1 0 5 1 12 3 16 3
10 -90 15 -97 5z"/>
<path d="M12118 3543 c-21 -2 -38 -8 -38 -13 0 -13 89 -17 94 -4 5 12 -3 25
-13 22 -3 -1 -23 -3 -43 -5z"/>
<path d="M11887 3493 c-12 -11 -8 -23 8 -23 8 0 15 7 15 15 0 16 -12 20 -23 8z"/>
<path d="M11960 3490 c0 -14 21 -21 62 -22 73 -1 88 2 88 17 0 12 -15 15 -75
15 -45 0 -75 -4 -75 -10z"/>
<path d="M12120 3485 c0 -8 9 -15 20 -15 11 0 23 0 28 -1 4 0 8 7 10 15 3 12
-5 16 -27 16 -21 0 -31 -5 -31 -15z"/>
<path d="M12493 3462 c-13 -2 -23 -8 -23 -13 0 -5 -7 -9 -15 -9 -22 0 -85 -42
-121 -81 -70 -75 -81 -140 -80 -459 l1 -235 27 -38 c34 -50 118 -107 157 -107
16 0 42 5 58 11 15 6 46 13 67 15 89 11 163 60 195 130 25 52 21 73 -4 24 -40
-76 -109 -120 -202 -128 -56 -4 -63 -3 -57 12 3 9 10 16 15 16 19 0 83 67 100
105 16 33 19 67 19 204 l0 164 -54 -6 c-67 -7 -66 5 4 51 43 28 50 37 50 65 0
17 -9 50 -19 73 -19 42 -77 104 -97 104 -7 0 -15 7 -18 16 -6 15 1 16 58 12
84 -7 143 -41 185 -106 l31 -49 2 -244 c1 -179 3 -215 8 -134 7 145 5 407 -4
470 -8 58 -33 89 -96 118 -42 20 -127 28 -187 19z"/>
<path d="M13050 3453 c-8 -3 -30 -12 -47 -20 -18 -9 -39 -13 -47 -10 -9 4 -13
1 -10 -6 2 -7 -9 -17 -25 -23 -24 -10 -29 -18 -33 -55 -6 -53 -3 -59 17 -33
20 26 19 14 -2 -27 -15 -29 -18 -69 -21 -274 -3 -251 1 -289 41 -350 20 -30
84 -75 107 -75 26 0 100 65 124 110 25 46 26 54 26 215 l0 168 -55 -7 c-30 -3
-55 -4 -55 -1 0 2 25 23 55 45 48 35 55 45 55 74 0 65 -39 127 -115 183 l-30
22 56 0 c75 1 152 -38 194 -98 l30 -43 3 -246 c4 -285 0 -306 -75 -372 -47
-41 -94 -60 -150 -60 -59 0 -34 -17 32 -22 36 -3 71 -10 78 -16 16 -14 81 9
114 40 49 44 83 100 83 134 0 18 5 36 11 40 9 5 10 56 4 183 -4 97 -8 187 -10
201 -10 63 -14 87 -21 115 -7 31 -36 78 -63 106 -9 8 -25 28 -36 43 -11 15
-33 34 -50 43 -29 15 -155 26 -185 16z m-30 -67 c0 -2 -7 -7 -16 -10 -8 -3
-12 -2 -9 4 6 10 25 14 25 6z"/>
<path d="M9885 3290 c3 -5 10 -10 16 -10 5 0 9 5 9 10 0 6 -7 10 -16 10 -8 0
-12 -4 -9 -10z"/>
<path d="M9830 3249 c0 -5 6 -9 14 -9 8 0 21 -3 30 -6 10 -4 16 -1 16 8 0 10
-11 15 -30 16 -16 0 -30 -4 -30 -9z"/>
<path d="M9920 3246 c0 -9 8 -12 25 -8 14 2 25 8 25 13 0 5 -11 9 -25 9 -14 0
-25 -6 -25 -14z"/>
<path d="M9996 3251 c-4 -5 -2 -12 3 -15 5 -4 12 -2 15 3 4 5 2 12 -3 15 -5 4
-12 2 -15 -3z"/>
<path d="M9753 3228 c2 -7 12 -13 22 -13 10 0 20 6 23 13 2 7 -6 12 -23 12
-17 0 -25 -5 -22 -12z"/>
<path d="M9663 3097 c3 -23 1 -38 -6 -41 -7 -2 -5 -5 4 -5 19 -1 42 23 32 32
-3 4 -1 7 5 7 7 0 12 7 12 15 0 8 -4 15 -9 15 -5 0 -17 3 -27 7 -15 5 -16 2
-11 -30z"/>
<path d="M9730 3115 c0 -8 5 -15 10 -15 6 0 10 7 10 15 0 8 -4 15 -10 15 -5 0
-10 -7 -10 -15z"/>
<path d="M9815 3110 c8 -13 35 -13 55 0 11 7 5 10 -23 10 -23 0 -36 -4 -32
-10z"/>
<path d="M9988 3113 c7 -3 16 -2 19 1 4 3 -2 6 -13 5 -11 0 -14 -3 -6 -6z"/>
<path d="M9720 3065 c-10 -13 -9 -15 9 -15 12 0 21 6 21 15 0 8 -4 15 -9 15
-5 0 -14 -7 -21 -15z"/>
<path d="M9813 3067 c4 -14 46 -16 49 -2 2 5 -10 11 -25 12 -18 1 -27 -2 -24
-10z"/>
<path d="M9890 3066 c0 -9 7 -15 18 -13 26 4 30 22 5 25 -16 2 -23 -2 -23 -12z"/>
<path d="M9967 3073 c-15 -14 -6 -23 23 -23 20 0 30 5 30 15 0 15 -40 21 -53
8z"/>
<path d="M10210 2756 c-26 -13 -58 -41 -75 -65 -26 -37 -30 -51 -30 -109 0
-58 4 -72 30 -109 42 -59 97 -88 165 -87 30 1 69 8 86 17 35 18 94 81 94 100
0 8 -13 26 -30 42 -16 16 -30 33 -30 38 0 4 14 20 30 34 17 13 30 32 30 40 0
28 -48 80 -94 102 -59 27 -119 26 -176 -3z"/>
<path d="M10997 2720 c-122 -37 -176 -194 -103 -299 82 -118 248 -117 334 3
l23 31 -41 38 -41 39 41 36 41 37 -27 37 c-49 68 -148 102 -227 78z"/>
<path d="M12913 2470 c-12 -5 -29 -20 -38 -34 -18 -27 -36 -27 -112 -4 -77 23
-132 9 -201 -49 -29 -25 -33 -35 -37 -91 -7 -92 23 -134 128 -181 187 -83 321
-79 443 14 19 15 33 29 30 32 -2 3 6 15 20 28 13 12 24 30 24 39 0 9 7 19 16
23 8 3 13 11 10 19 -3 7 0 14 7 17 16 5 14 75 -4 92 -9 9 -42 28 -75 44 l-60
28 19 -37 c58 -118 -105 -271 -261 -246 -189 30 -252 65 -252 142 0 34 6 51
32 80 31 35 34 36 87 31 31 -3 82 -11 115 -18 l58 -14 23 29 c12 15 35 36 51
47 30 19 16 25 -23 9z"/>
<path d="M12958 2334 c-14 -30 -56 -54 -95 -54 -15 0 -62 9 -103 20 -89 23
-80 22 -80 10 0 -24 177 -55 228 -41 35 10 82 56 82 79 0 21 -20 13 -32 -14z"/>
<path d="M10839 2076 c29 -31 35 -33 22 -7 -6 10 -18 22 -28 25 -13 5 -11 1 6
-18z"/>
<path d="M10535 2009 c-15 -23 16 -30 131 -27 98 2 119 6 119 18 0 12 -21 15
-122 18 -81 2 -124 -1 -128 -9z"/>
<path d="M10882 2000 c0 -14 2 -19 5 -12 2 6 2 18 0 25 -3 6 -5 1 -5 -13z"/>
<path d="M10450 1943 c0 -12 38 -48 44 -42 3 2 -6 15 -20 28 -13 13 -24 19
-24 14z"/>
<path d="M10583 1883 c32 -2 81 -2 110 0 29 2 3 3 -58 3 -60 0 -84 -1 -52 -3z"/>
<path d="M11900 1801 c0 -24 -36 -51 -67 -51 -22 0 -23 -3 -23 -80 l0 -80 45
0 c41 0 45 -2 45 -25 0 -23 4 -25 45 -25 41 0 45 2 45 25 0 23 4 25 44 25 41
0 45 2 48 28 2 15 1 51 0 80 -4 47 -6 52 -28 52 -27 0 -64 32 -64 55 0 11 -12
15 -45 15 -38 0 -45 -3 -45 -19z m66 -110 c5 -5 18 -11 29 -14 11 -3 -11 -5
-50 -5 -38 0 -61 2 -50 5 11 3 24 9 30 14 5 5 14 9 20 9 6 0 15 -4 21 -9z"/>
<path d="M12100 1778 c0 -24 -3 -60 -7 -81 -5 -33 -3 -39 15 -44 l21 -5 -21
-17 c-30 -25 -18 -65 23 -80 41 -14 167 -14 207 0 37 13 51 53 27 79 -14 16
-14 18 -1 23 11 5 18 -2 22 -21 3 -15 7 -33 10 -39 2 -9 29 -13 89 -13 69 0
85 -3 85 -15 0 -11 12 -15 45 -15 l45 0 2 48 c1 26 1 58 1 72 -1 14 -2 53 -3
88 l-2 62 -134 0 -134 0 -1 -77 c-1 -55 -3 -70 -9 -53 -4 14 -8 40 -9 58 l-1
32 -85 0 c-78 0 -85 2 -85 20 0 17 -7 20 -50 20 l-50 0 0 -42z"/>
<path d="M12680 1785 c0 -35 0 -35 46 -35 27 0 43 -4 39 -10 -3 -5 -24 -10
-46 -10 -36 0 -39 -2 -39 -28 0 -15 5 -33 11 -39 8 -8 8 -13 0 -17 -17 -11
-13 -72 5 -87 21 -18 191 -22 224 -6 23 11 25 19 25 76 1 49 5 65 18 72 21 12
23 65 2 73 -8 3 -15 14 -15 25 0 19 -8 20 -135 20 l-135 1 0 -35z m186 -111
c-3 -8 -19 -14 -36 -14 -33 0 -41 15 -11 23 10 2 24 19 32 36 l14 32 3 -31 c2
-18 1 -38 -2 -46z"/>
<path d="M13232 1799 c-9 -4 -45 -5 -79 -2 -33 2 -63 1 -66 -4 -3 -4 -3 -20 0
-35 5 -26 8 -27 55 -25 28 2 57 11 69 20 22 20 30 21 27 6 -2 -6 4 -16 13 -22
21 -14 53 -1 45 18 -7 19 -4 19 39 -5 l35 -20 0 34 0 34 -61 4 c-33 1 -68 0
-77 -3z m-42 -29 c0 -5 -4 -10 -10 -10 -5 0 -10 5 -10 10 0 6 5 10 10 10 6 0
10 -4 10 -10z"/>
<path d="M13093 1683 c-15 -6 -17 -39 -3 -48 6 -3 7 -17 4 -29 -4 -19 0 -25
24 -35 50 -21 72 -2 72 62 l0 52 -43 1 c-23 1 -48 -1 -54 -3z m37 -29 c0 -8
-4 -12 -10 -9 -5 3 -10 10 -10 16 0 5 5 9 10 9 6 0 10 -7 10 -16z"/>
<path d="M13212 1670 c-18 -30 -15 -65 9 -86 21 -19 21 -18 45 9 l24 28 0 -26
c0 -17 5 -25 13 -22 7 2 12 23 12 57 0 34 -5 55 -12 58 -8 2 -13 -5 -13 -19
l0 -23 -16 22 c-19 27 -45 28 -62 2z m35 -57 c-4 -17 -4 -17 -12 0 -4 9 -4 25
0 35 8 16 8 16 12 0 3 -10 3 -26 0 -35z"/>
<path d="M11810 1447 c0 -37 7 -50 23 -40 6 4 30 6 54 4 36 -2 43 1 44 16 0
14 2 13 10 -6 7 -19 12 -21 24 -11 8 6 20 8 26 4 7 -4 52 -9 101 -11 l88 -4
-3 38 -3 38 -44 -3 c-25 -2 -47 -8 -48 -13 -3 -6 -9 -6 -15 -1 -19 15 -66 20
-102 12 -18 -4 -38 -4 -45 0 -7 4 -27 4 -45 0 -18 -4 -40 -3 -49 2 -13 8 -16
4 -16 -25z"/>
<path d="M12217 1457 c-15 -19 -15 -22 -1 -39 13 -14 21 -15 37 -7 14 8 22 8
27 -1 4 -6 18 -10 31 -8 17 2 25 10 27 29 3 22 -2 27 -25 32 -15 3 -34 1 -40
-5 -9 -7 -13 -7 -13 0 0 20 -26 19 -43 -1z"/>
<path d="M12369 1469 c-5 -3 -6 -19 -3 -36 l6 -30 136 1 137 1 3 33 c4 37 19
33 -161 36 -60 0 -113 -2 -118 -5z m78 -31 c-3 -8 -6 -5 -6 6 -1 11 2 17 5 13
3 -3 4 -12 1 -19z m93 12 c0 -5 -2 -10 -4 -10 -2 0 -12 -3 -20 -6 -12 -5 -15
-2 -10 10 7 17 34 22 34 6z"/>
<path d="M12670 1454 c0 -8 5 -12 10 -9 6 3 10 10 10 16 0 5 -4 9 -10 9 -5 0
-10 -7 -10 -16z"/>
<path d="M12710 1461 c0 -12 29 -23 41 -15 5 3 7 10 4 15 -8 12 -45 12 -45 0z"/>
<path d="M12782 1459 c2 -6 7 -10 11 -10 4 1 14 1 22 1 8 0 15 5 15 10 0 6
-12 10 -26 10 -14 0 -24 -5 -22 -11z"/>
<path d="M12840 1461 c0 -12 36 -20 60 -14 34 9 22 21 -20 21 -22 0 -40 -3
-40 -7z"/>
<path d="M12932 1458 c7 -20 48 -23 48 -4 0 11 -9 16 -26 16 -16 0 -24 -5 -22
-12z"/>
<path d="M13000 1458 c0 -8 14 -13 35 -14 23 0 35 4 35 13 0 8 -13 13 -35 13
-21 0 -35 -5 -35 -12z"/>
<path d="M13100 1458 c0 -4 6 -8 14 -8 7 0 28 -3 45 -6 24 -5 31 -3 31 10 0
12 -10 15 -45 14 -25 -1 -45 -6 -45 -10z"/>
<path d="M13220 1460 c0 -5 7 -10 15 -10 8 0 15 5 15 10 0 6 -7 10 -15 10 -8
0 -15 -4 -15 -10z"/>
<path d="M13260 1460 c0 -5 5 -10 10 -10 6 0 10 5 10 10 0 6 -4 10 -10 10 -5
0 -10 -4 -10 -10z"/>
<path d="M13307 1454 c4 -10 9 -12 16 -5 5 5 16 7 23 4 8 -3 14 0 14 6 0 6
-13 11 -30 11 -23 0 -28 -4 -23 -16z"/>
<path d="M13392 1459 c2 -6 25 -13 51 -15 36 -3 47 0 47 11 0 11 -13 15 -51
15 -32 0 -49 -4 -47 -11z"/>
<path d="M13502 1459 c6 -18 58 -21 58 -3 0 9 -11 14 -31 14 -19 0 -29 -5 -27
-11z"/>
<path d="M13580 1460 c0 -5 14 -10 30 -10 17 0 30 5 30 10 0 6 -13 10 -30 10
-16 0 -30 -4 -30 -10z"/>
<path d="M13665 1460 c-3 -5 3 -10 14 -10 12 0 24 0 28 -1 4 0 9 4 11 10 5 14
-45 15 -53 1z"/>
<path d="M13745 1460 c-3 -5 -1 -10 4 -10 6 0 11 5 11 10 0 6 -2 10 -4 10 -3
0 -8 -4 -11 -10z"/>
<path d="M12670 1420 c0 -5 18 -10 39 -10 22 0 43 5 46 10 4 6 -12 10 -39 10
-25 0 -46 -4 -46 -10z"/>
<path d="M12780 1420 c0 -5 18 -10 40 -10 22 0 40 5 40 10 0 6 -18 10 -40 10
-22 0 -40 -4 -40 -10z"/>
<path d="M12870 1420 c0 -5 11 -10 25 -10 14 0 25 5 25 10 0 6 -11 10 -25 10
-14 0 -25 -4 -25 -10z"/>
<path d="M12935 1420 c3 -5 22 -10 41 -10 19 0 34 5 34 10 0 6 -18 10 -41 10
-24 0 -38 -4 -34 -10z"/>
<path d="M13040 1420 c0 -5 7 -10 15 -10 8 0 15 5 15 10 0 6 -7 10 -15 10 -8
0 -15 -4 -15 -10z"/>
<path d="M13085 1420 c3 -5 19 -10 36 -10 16 0 29 5 29 10 0 6 -16 10 -36 10
-21 0 -33 -4 -29 -10z"/>
<path d="M13160 1420 c0 -5 11 -10 24 -10 14 0 28 5 31 10 4 6 -7 10 -24 10
-17 0 -31 -4 -31 -10z"/>
<path d="M13240 1420 c0 -5 7 -10 15 -10 8 0 15 5 15 10 0 6 -7 10 -15 10 -8
0 -15 -4 -15 -10z"/>
<path d="M13290 1420 c20 -13 87 -13 95 0 4 6 -16 10 -52 10 -41 0 -54 -3 -43
-10z"/>
<path d="M13400 1420 c0 -5 4 -10 9 -10 6 0 13 5 16 10 3 6 -1 10 -9 10 -9 0
-16 -4 -16 -10z"/>
<path d="M13485 1420 c28 -12 45 -12 45 0 0 6 -15 10 -32 9 -28 0 -30 -2 -13
-9z"/>
<path d="M13550 1421 c0 -5 16 -9 35 -9 19 0 35 4 35 9 0 5 -16 9 -35 9 -19 0
-35 -4 -35 -9z"/>
<path d="M13640 1420 c0 -5 7 -10 15 -10 8 0 15 5 15 10 0 6 -7 10 -15 10 -8
0 -15 -4 -15 -10z"/>
<path d="M13720 1420 c0 -5 9 -10 20 -10 11 0 20 5 20 10 0 6 -9 10 -20 10
-11 0 -20 -4 -20 -10z"/>
<path d="M13775 1420 c3 -5 10 -10 16 -10 5 0 9 5 9 10 0 6 -7 10 -16 10 -8 0
-12 -4 -9 -10z"/>
<path d="M9740 1376 c0 -28 -10 -37 -54 -45 -26 -6 -32 -12 -34 -39 -3 -32 -3
-32 44 -32 30 0 54 6 65 16 17 15 20 15 43 0 14 -9 46 -16 71 -16 43 0 45 1
45 30 0 31 -3 34 -53 44 -21 5 -29 14 -34 36 -5 28 -9 30 -49 30 -40 0 -44 -2
-44 -24z"/>
<path d="M9946 1392 c-3 -5 -5 -40 -4 -80 0 -52 4 -72 15 -76 12 -5 12 -8 -1
-22 -19 -18 -21 -55 -4 -72 17 -17 229 -17 246 0 18 18 15 68 -4 75 -15 6 -15
7 -1 18 11 8 15 26 14 66 l-2 54 -81 3 c-72 2 -83 5 -87 22 -4 16 -14 20 -45
20 -23 0 -43 -4 -46 -8z m179 -212 c-3 -5 -26 -10 -51 -10 -24 0 -44 5 -44 10
0 6 23 10 51 10 31 0 48 -4 44 -10z"/>
<path d="M10235 1388 c-3 -7 -4 -60 -2 -118 l2 -105 88 -3 c70 -2 87 -6 87
-18 0 -12 10 -14 43 -12 l42 3 0 130 0 130 -128 3 c-96 2 -129 -1 -132 -10z
m163 -75 c-10 -2 -28 -2 -40 0 -13 2 -5 4 17 4 22 1 32 -1 23 -4z"/>
<path d="M10524 1386 c-13 -34 0 -51 41 -52 21 0 41 -6 43 -12 2 -8 -11 -12
-42 -12 -44 0 -46 -1 -46 -30 0 -20 5 -30 15 -30 8 0 15 -4 15 -9 0 -5 -7 -14
-15 -21 -20 -16 -19 -54 1 -74 12 -12 38 -16 115 -16 55 0 109 5 120 10 22 12
25 50 7 80 -9 14 -10 23 -3 28 28 20 49 102 26 102 -5 0 -12 12 -15 26 -6 21
-11 25 -39 22 l-32 -3 -3 -77 -3 -78 -45 0 c-28 0 -43 4 -39 10 3 6 12 10 20
10 27 0 56 52 53 94 l-3 41 -83 3 c-65 2 -83 0 -88 -12z m172 -203 c-7 -7 -77
-5 -85 3 -2 2 17 4 44 4 27 0 45 -3 41 -7z"/>
<path d="M11176 1359 c-17 -20 -17 -21 6 -14 30 10 34 13 22 25 -6 6 -16 2
-28 -11z"/>
<path d="M11110 1360 c0 -5 7 -7 15 -4 8 4 15 8 15 10 0 2 -7 4 -15 4 -8 0
-15 -4 -15 -10z"/>
<path d="M11030 1350 c0 -5 7 -10 15 -10 8 0 15 5 15 10 0 6 -7 10 -15 10 -8
0 -15 -4 -15 -10z"/>
<path d="M10940 1340 c0 -5 7 -10 15 -10 8 0 15 5 15 10 0 6 -7 10 -15 10 -8
0 -15 -4 -15 -10z"/>
<path d="M10934 1261 c-2 -2 -4 -26 -4 -53 l0 -48 53 1 c47 0 49 1 27 11 -23
11 -24 12 -4 15 15 3 20 12 21 38 1 19 -2 35 -5 36 -31 3 -85 3 -88 0z m56
-21 c0 -5 -7 -10 -15 -10 -8 0 -15 5 -15 10 0 6 7 10 15 10 8 0 15 -4 15 -10z"/>
<path d="M11062 1261 c-9 -5 -12 -22 -10 -47 3 -31 8 -39 25 -40 11 -1 33 -4
48 -8 24 -6 27 -4 23 12 -3 11 -1 26 3 35 10 17 2 47 -12 47 -5 0 -9 -16 -9
-35 0 -22 -5 -35 -13 -35 -9 0 -12 10 -9 31 6 39 -17 59 -46 40z m28 -41 c0
-5 -4 -10 -10 -10 -5 0 -10 5 -10 10 0 6 5 10 10 10 6 0 10 -4 10 -10z"/>
<path d="M9654 1241 c-2 -2 -4 -19 -4 -38 0 -33 1 -33 45 -33 38 0 45 -3 45
-20 0 -17 7 -20 45 -20 38 0 45 3 45 19 0 16 8 20 43 23 39 3 42 5 45 36 2 17
0 32 -5 33 -27 4 -255 4 -259 0z"/>
<path d="M9650 1039 c0 -12 33 -27 50 -22 12 4 12 3 1 -5 -9 -7 -10 -12 -2
-16 12 -8 25 16 19 35 -4 13 -68 21 -68 8z"/>
<path d="M9747 1033 c3 -7 16 -13 29 -13 18 0 22 -4 17 -17 -6 -15 -4 -16 9
-5 11 9 23 10 42 2 21 -8 26 -7 26 5 0 19 16 19 24 0 6 -17 26 -20 26 -4 0 18
-24 36 -58 44 -24 5 -33 3 -38 -9 -7 -19 -24 -21 -24 -3 0 8 -12 14 -29 14
-20 0 -28 -4 -24 -14z"/>
<path d="M9927 1043 c-11 -10 -8 -20 8 -27 10 -4 15 1 15 14 0 20 -11 26 -23
13z"/>
<path d="M9964 1038 c-4 -6 -2 -14 4 -16 7 -2 12 -10 12 -18 0 -8 7 -14 15
-14 8 0 15 5 15 10 0 6 -7 13 -15 16 -20 8 -19 21 3 27 13 4 12 5 -5 6 -12 0
-25 -4 -29 -11z"/>
<path d="M10061 1031 c-14 -26 12 -50 34 -31 11 9 12 16 2 31 -15 24 -24 24
-36 0z m29 -11 c0 -5 -4 -10 -10 -10 -5 0 -10 5 -10 10 0 6 5 10 10 10 6 0 10
-4 10 -10z"/>
<path d="M10213 1025 c1 -13 7 -28 11 -32 5 -4 6 5 2 21 -7 27 -6 27 10 12 11
-11 20 -14 26 -8 15 15 0 32 -28 32 -20 0 -24 -4 -21 -25z"/>
<path d="M10285 1027 c0 -13 5 -24 10 -24 6 0 18 -4 28 -8 16 -7 18 -3 15 21
-2 22 -9 30 -28 32 -20 2 -25 -1 -25 -21z"/>
<path d="M10373 1043 c23 -6 22 -20 -3 -28 -28 -9 -25 -25 4 -25 17 0 25 7 28
25 6 29 1 35 -26 34 -17 -1 -18 -2 -3 -6z"/>
<path d="M10424 1028 c1 -22 17 -36 44 -37 7 -1 12 11 12 29 0 34 -13 39 -30
13 -11 -17 -11 -17 -6 0 3 10 0 17 -8 17 -7 0 -12 -10 -12 -22z"/>
<path d="M10123 1018 c4 -24 20 -33 42 -25 23 9 6 47 -21 47 -19 0 -23 -5 -21
-22z"/>
<path d="M9650 1000 c0 -5 4 -10 9 -10 6 0 13 5 16 10 3 6 -1 10 -9 10 -9 0
-16 -4 -16 -10z"/>
<path d="M9735 1000 c3 -5 10 -10 16 -10 5 0 9 5 9 10 0 6 -7 10 -16 10 -8 0
-12 -4 -9 -10z"/>
<path d="M4370 3730 c0 -47 2 -50 25 -50 23 0 25 3 25 50 0 47 -2 50 -25 50
-23 0 -25 -3 -25 -50z"/>
<path d="M2679 3713 c-9 -10 -15 -50 -17 -113 -5 -118 12 -163 56 -158 43 5
53 38 50 161 -2 83 -6 110 -18 117 -23 15 -56 12 -71 -7z"/>
<path d="M3363 3615 l-32 -55 39 0 40 0 0 55 c0 30 -3 55 -7 55 -5 0 -22 -25
-40 -55z"/>
<path d="M5570 3430 l0 -30 100 0 100 0 0 30 0 30 -100 0 -100 0 0 -30z"/>
<path d="M2710 2950 l0 -50 43 0 c36 0 46 4 57 25 11 21 11 29 0 50 -11 21
-21 25 -57 25 l-43 0 0 -50z"/>
<path d="M2710 2761 l0 -59 33 2 c17 2 42 4 53 5 32 2 58 45 42 70 -16 26 -51
41 -93 41 l-35 0 0 -59z"/>
<path d="M5231 2732 c-37 -11 -49 -38 -28 -59 27 -27 161 -25 181 2 13 18 13
22 -3 38 -19 20 -109 31 -150 19z"/>
<path d="M4150 2701 c-14 -4 -25 -13 -25 -21 0 -21 72 -34 139 -26 45 6 56 11
56 25 0 13 -10 20 -37 25 -47 7 -100 6 -133 -3z"/>
<path d="M14258 2573 c-3 -21 -2 -63 2 -93 7 -50 7 -47 9 38 1 96 -3 118 -11
55z"/>
<path d="M14766 2499 c1 -61 5 -114 8 -117 3 -3 6 47 6 111 0 65 -4 117 -9
117 -5 0 -7 -50 -5 -111z"/>
<path d="M14771 2334 c0 -11 3 -14 6 -6 3 7 2 16 -1 19 -3 4 -6 -2 -5 -13z"/>
<path d="M14771 2244 c0 -11 3 -14 6 -6 3 7 2 16 -1 19 -3 4 -6 -2 -5 -13z"/>
<path d="M15264 2440 c0 -80 2 -112 3 -72 2 39 2 105 0 145 -1 39 -3 7 -3 -73z"/>
<path d="M2642 2088 c-36 -18 -20 -33 38 -36 61 -4 84 10 54 33 -22 17 -60 18
-92 3z"/>
<path d="M2650 2000 c0 -5 18 -10 40 -10 22 0 40 5 40 10 0 6 -18 10 -40 10
-22 0 -40 -4 -40 -10z"/>
<path d="M3220 2040 c0 -38 2 -40 30 -40 28 0 30 2 30 40 0 38 -2 40 -30 40
-28 0 -30 -2 -30 -40z"/>
<path d="M3320 2040 c0 -5 16 -10 35 -10 19 0 35 5 35 10 0 6 -16 10 -35 10
-19 0 -35 -4 -35 -10z"/>
<path d="M3273 1900 c-30 -12 -29 -24 2 -38 32 -15 62 -15 70 -2 3 6 15 10 26
10 24 0 25 17 2 24 -45 12 -80 14 -100 6z"/>
<path d="M4192 2068 c-19 -19 -15 -66 7 -73 45 -14 76 31 45 66 -20 22 -35 24
-52 7z"/>
<path d="M4300 2035 c0 -10 10 -15 30 -15 20 0 30 5 30 15 0 10 -10 15 -30 15
-20 0 -30 -5 -30 -15z"/>
<path d="M4560 1990 c-9 -18 -8 -20 15 -20 18 0 25 5 25 20 0 11 -7 20 -15 20
-8 0 -19 -9 -25 -20z"/>
<path d="M5170 2026 c-6 -8 -21 -17 -33 -19 -12 -2 14 -4 58 -5 65 0 74 2 48
9 -18 5 -35 14 -38 19 -9 14 -21 12 -35 -4z"/>
<path d="M5148 1963 c7 -3 16 -2 19 1 4 3 -2 6 -13 5 -11 0 -14 -3 -6 -6z"/>
<path d="M5233 1963 c9 -2 23 -2 30 0 6 3 -1 5 -18 5 -16 0 -22 -2 -12 -5z"/>
<path d="M3917 2063 c-10 -10 -8 -43 2 -43 9 0 21 24 21 41 0 11 -14 12 -23 2z"/>
<path d="M3884 1937 c-13 -35 24 -73 49 -48 8 8 5 18 -15 38 -24 23 -28 25
-34 10z"/>
<path d="M2638 1894 c-10 -3 -18 -9 -18 -14 0 -14 59 -33 82 -26 32 8 54 24
46 32 -9 8 -88 14 -110 8z"/>
</g>
</svg>
