<svg width="112" height="68" viewBox="0 0 112 68" fill="none" xmlns="http://www.w3.org/2000/svg">
<path d="M1 68V0H-1V68H1Z" fill="black" mask="url(#path-1-inside-1_434_49)"/>
<path d="M9.38517 11.186H8.39517C8.39517 12.134 8.39517 13.01 8.39517 13.814C8.40717 14.606 8.41917 15.386 8.43117 16.154H9.52917C10.6812 16.154 11.5392 15.944 12.1032 15.524C12.6672 15.104 12.9492 14.498 12.9492 13.706C12.9492 12.866 12.6672 12.236 12.1032 11.816C11.5392 11.396 10.6332 11.186 9.38517 11.186ZM9.67317 5.786H8.43117C8.41917 6.554 8.40717 7.334 8.39517 8.126C8.39517 8.906 8.39517 9.65 8.39517 10.358H9.33117C10.4232 10.358 11.2152 10.172 11.7072 9.8C12.1992 9.428 12.4452 8.834 12.4452 8.018C12.4452 7.202 12.2112 6.626 11.7432 6.29C11.2872 5.954 10.5972 5.786 9.67317 5.786ZM4.99317 5.696V4.958H10.2132C11.4612 4.958 12.4272 5.234 13.1112 5.786C13.7952 6.338 14.1372 7.04 14.1372 7.892C14.1372 8.528 13.9212 9.11 13.4892 9.638C13.0572 10.166 12.3432 10.532 11.3472 10.736C12.5472 10.904 13.4112 11.258 13.9392 11.798C14.4792 12.338 14.7492 12.974 14.7492 13.706C14.7492 14.246 14.5872 14.768 14.2632 15.272C13.9512 15.776 13.4412 16.19 12.7332 16.514C12.0252 16.838 11.0952 17 9.94317 17H4.99317V16.262L6.64917 16.064C6.67317 15.308 6.68517 14.54 6.68517 13.76C6.68517 12.98 6.68517 12.2 6.68517 11.42V10.538C6.68517 9.758 6.68517 8.984 6.68517 8.216C6.68517 7.436 6.67317 6.662 6.64917 5.894L4.99317 5.696ZM20.4535 17.234C19.7575 17.234 19.0915 17.072 18.4555 16.748C17.8315 16.412 17.3215 15.914 16.9255 15.254C16.5295 14.582 16.3315 13.754 16.3315 12.77C16.3315 11.774 16.5295 10.94 16.9255 10.268C17.3215 9.584 17.8315 9.074 18.4555 8.738C19.0915 8.39 19.7575 8.216 20.4535 8.216C21.1495 8.216 21.8095 8.39 22.4335 8.738C23.0695 9.074 23.5855 9.584 23.9815 10.268C24.3895 10.94 24.5935 11.774 24.5935 12.77C24.5935 13.754 24.3895 14.582 23.9815 15.254C23.5855 15.914 23.0695 16.412 22.4335 16.748C21.8095 17.072 21.1495 17.234 20.4535 17.234ZM20.4535 16.424C21.2335 16.424 21.8335 16.118 22.2535 15.506C22.6735 14.882 22.8835 13.97 22.8835 12.77C22.8835 11.558 22.6735 10.634 22.2535 9.998C21.8335 9.362 21.2335 9.044 20.4535 9.044C19.6735 9.044 19.0735 9.362 18.6535 9.998C18.2455 10.634 18.0415 11.558 18.0415 12.77C18.0415 13.97 18.2455 14.882 18.6535 15.506C19.0735 16.118 19.6735 16.424 20.4535 16.424ZM30.3324 17.234C29.6364 17.234 28.9704 17.072 28.3344 16.748C27.7104 16.412 27.2004 15.914 26.8044 15.254C26.4084 14.582 26.2104 13.754 26.2104 12.77C26.2104 11.774 26.4084 10.94 26.8044 10.268C27.2004 9.584 27.7104 9.074 28.3344 8.738C28.9704 8.39 29.6364 8.216 30.3324 8.216C31.0284 8.216 31.6884 8.39 32.3124 8.738C32.9484 9.074 33.4644 9.584 33.8604 10.268C34.2684 10.94 34.4724 11.774 34.4724 12.77C34.4724 13.754 34.2684 14.582 33.8604 15.254C33.4644 15.914 32.9484 16.412 32.3124 16.748C31.6884 17.072 31.0284 17.234 30.3324 17.234ZM30.3324 16.424C31.1124 16.424 31.7124 16.118 32.1324 15.506C32.5524 14.882 32.7624 13.97 32.7624 12.77C32.7624 11.558 32.5524 10.634 32.1324 9.998C31.7124 9.362 31.1124 9.044 30.3324 9.044C29.5524 9.044 28.9524 9.362 28.5324 9.998C28.1244 10.634 27.9204 11.558 27.9204 12.77C27.9204 13.97 28.1244 14.882 28.5324 15.506C28.9524 16.118 29.5524 16.424 30.3324 16.424ZM35.5535 17V16.352L36.9935 16.1C37.0055 15.62 37.0115 15.14 37.0115 14.66C37.0235 14.168 37.0295 13.688 37.0295 13.22V5.318L35.5535 5.138V4.508L38.3615 3.698L38.6135 3.842L38.5415 6.398V12.68L41.6195 9.476L40.2875 9.152V8.45H44.4815V9.152L42.7895 9.404L40.8095 11.438L43.7615 16.136L44.9495 16.352V17H42.5015L39.7295 12.536L38.5415 13.76C38.5415 14.144 38.5415 14.534 38.5415 14.93C38.5535 15.326 38.5655 15.716 38.5775 16.1L40.0175 16.352V17H35.5535ZM8.43117 40.27C7.75917 40.27 7.11117 40.18 6.48717 40C5.86317 39.808 5.34117 39.58 4.92117 39.316L5.02917 36.796H6.14517L6.50517 38.92C6.78117 39.076 7.06317 39.19 7.35117 39.262C7.65117 39.334 7.99317 39.37 8.37717 39.37C9.22917 39.37 9.90717 39.184 10.4112 38.812C10.9152 38.428 11.1672 37.888 11.1672 37.192C11.1672 36.616 10.9872 36.172 10.6272 35.86C10.2792 35.536 9.72117 35.224 8.95317 34.924L8.25117 34.636C7.32717 34.276 6.57717 33.814 6.00117 33.25C5.43717 32.674 5.15517 31.93 5.15517 31.018C5.15517 30.322 5.32917 29.728 5.67717 29.236C6.03717 28.744 6.52317 28.366 7.13517 28.102C7.74717 27.826 8.43717 27.688 9.20517 27.688C9.80517 27.688 10.3512 27.772 10.8432 27.94C11.3352 28.108 11.7732 28.336 12.1572 28.624L12.0492 30.982H10.9512L10.5732 28.948C10.1292 28.708 9.63717 28.588 9.09717 28.588C8.41317 28.588 7.83717 28.762 7.36917 29.11C6.90117 29.446 6.66717 29.95 6.66717 30.622C6.66717 31.174 6.84117 31.63 7.18917 31.99C7.54917 32.35 8.05317 32.656 8.70117 32.908L9.42117 33.178C10.5972 33.634 11.4372 34.15 11.9412 34.726C12.4452 35.29 12.6972 35.998 12.6972 36.85C12.6972 37.558 12.5112 38.17 12.1392 38.686C11.7792 39.19 11.2812 39.58 10.6452 39.856C10.0092 40.132 9.27117 40.27 8.43117 40.27ZM18.2541 32.044C17.9181 32.044 17.5761 32.14 17.2281 32.332C16.8921 32.524 16.5981 32.83 16.3461 33.25C16.1061 33.67 15.9501 34.228 15.8781 34.924H19.1541C19.5861 34.924 19.8681 34.834 20.0001 34.654C20.1441 34.474 20.2161 34.252 20.2161 33.988C20.2161 33.64 20.1261 33.322 19.9461 33.034C19.7781 32.734 19.5441 32.494 19.2441 32.314C18.9561 32.134 18.6261 32.044 18.2541 32.044ZM18.2361 40.234C17.0241 40.234 16.0521 39.844 15.3201 39.064C14.5881 38.272 14.2221 37.186 14.2221 35.806C14.2221 34.882 14.4081 34.078 14.7801 33.394C15.1641 32.71 15.6681 32.176 16.2921 31.792C16.9281 31.408 17.6181 31.216 18.3621 31.216C18.9861 31.216 19.5501 31.354 20.0541 31.63C20.5581 31.906 20.9601 32.302 21.2601 32.818C21.5601 33.322 21.7101 33.94 21.7101 34.672C21.7101 34.876 21.6981 35.068 21.6741 35.248C21.6501 35.416 21.6201 35.56 21.5841 35.68H15.8421C15.8661 36.784 16.1421 37.624 16.6701 38.2C17.1981 38.776 17.8941 39.064 18.7581 39.064C19.3341 39.064 19.8141 38.95 20.1981 38.722C20.5821 38.482 20.9361 38.176 21.2601 37.804L21.6921 38.146C21.3561 38.782 20.9001 39.292 20.3241 39.676C19.7481 40.048 19.0521 40.234 18.2361 40.234ZM23.3079 40V39.352L24.6399 39.1C24.6519 38.644 24.6579 38.152 24.6579 37.624C24.6699 37.096 24.6759 36.628 24.6759 36.22V35.356C24.6759 34.864 24.6699 34.456 24.6579 34.132C24.6579 33.808 24.6459 33.466 24.6219 33.106L23.1999 32.944V32.314L25.7199 31.216L25.9899 31.396L26.1339 32.836C26.5779 32.356 27.0879 31.966 27.6639 31.666C28.2399 31.366 28.8039 31.216 29.3559 31.216C30.1359 31.216 30.7119 31.48 31.0839 32.008C31.4679 32.524 31.6599 33.37 31.6599 34.546V36.22C31.6599 36.628 31.6599 37.096 31.6599 37.624C31.6719 38.152 31.6839 38.644 31.6959 39.1L32.9559 39.352V40H28.7799V39.352L30.1119 39.1C30.1239 38.656 30.1299 38.17 30.1299 37.642C30.1419 37.102 30.1479 36.628 30.1479 36.22V34.69C30.1479 33.862 30.0279 33.292 29.7879 32.98C29.5599 32.668 29.1819 32.512 28.6539 32.512C28.2459 32.512 27.8499 32.596 27.4659 32.764C27.0819 32.932 26.6619 33.208 26.2059 33.592V36.22C26.2059 36.616 26.2059 37.084 26.2059 37.624C26.2179 38.152 26.2299 38.644 26.2419 39.1L27.4839 39.352V40H23.3079ZM37.106 40.234C36.482 40.234 35.984 40.066 35.612 39.73C35.24 39.394 35.054 38.878 35.054 38.182C35.054 37.954 35.054 37.732 35.054 37.516C35.066 37.288 35.072 37 35.072 36.652V32.404H33.578V31.612L35.18 31.414L35.648 29.002H36.728L36.62 31.45H39.05V32.404H36.602V37.984C36.602 38.44 36.692 38.776 36.872 38.992C37.052 39.196 37.292 39.298 37.592 39.298C37.796 39.298 37.988 39.256 38.168 39.172C38.36 39.088 38.57 38.968 38.798 38.812L39.23 39.28C38.738 39.916 38.03 40.234 37.106 40.234ZM39.8995 40V39.352L41.2495 39.1C41.2615 38.644 41.2675 38.152 41.2675 37.624C41.2795 37.084 41.2855 36.616 41.2855 36.22V35.374C41.2855 34.882 41.2795 34.474 41.2675 34.15C41.2675 33.814 41.2555 33.466 41.2315 33.106L39.7915 32.944V32.314L42.5635 31.216L42.8335 31.396L42.7795 33.844V36.22C42.7795 36.616 42.7795 37.084 42.7795 37.624C42.7915 38.152 42.8035 38.644 42.8155 39.1L44.0755 39.352V40H39.8995ZM42.0235 29.236C41.6875 29.236 41.3995 29.128 41.1595 28.912C40.9315 28.696 40.8175 28.42 40.8175 28.084C40.8175 27.736 40.9315 27.46 41.1595 27.256C41.3995 27.04 41.6875 26.932 42.0235 26.932C42.3595 26.932 42.6415 27.04 42.8695 27.256C43.1095 27.46 43.2295 27.736 43.2295 28.084C43.2295 28.42 43.1095 28.696 42.8695 28.912C42.6415 29.128 42.3595 29.236 42.0235 29.236ZM45.3509 40V39.352L46.6829 39.1C46.6949 38.644 46.7009 38.152 46.7009 37.624C46.7129 37.096 46.7189 36.628 46.7189 36.22V35.356C46.7189 34.864 46.7129 34.456 46.7009 34.132C46.7009 33.808 46.6889 33.466 46.6649 33.106L45.2429 32.944V32.314L47.7629 31.216L48.0329 31.396L48.1769 32.854C48.5969 32.374 49.0889 31.984 49.6529 31.684C50.2169 31.372 50.7749 31.216 51.3269 31.216C51.8909 31.216 52.3469 31.348 52.6949 31.612C53.0549 31.876 53.3129 32.308 53.4689 32.908C53.9249 32.344 54.4349 31.924 54.9989 31.648C55.5629 31.36 56.1389 31.216 56.7269 31.216C57.4589 31.216 58.0229 31.462 58.4189 31.954C58.8269 32.446 59.0309 33.25 59.0309 34.366V36.22C59.0309 36.628 59.0309 37.096 59.0309 37.624C59.0429 38.152 59.0549 38.644 59.0669 39.1L60.3269 39.352V40H56.1509V39.352L57.4829 39.1C57.4949 38.656 57.5009 38.17 57.5009 37.642C57.5129 37.102 57.5189 36.628 57.5189 36.22V34.654C57.5189 33.814 57.3989 33.25 57.1589 32.962C56.9189 32.662 56.5349 32.512 56.0069 32.512C55.6349 32.512 55.2509 32.596 54.8549 32.764C54.4709 32.932 54.0509 33.226 53.5949 33.646C53.6069 33.778 53.6129 33.922 53.6129 34.078C53.6249 34.222 53.6309 34.378 53.6309 34.546V36.22C53.6309 36.628 53.6309 37.096 53.6309 37.624C53.6429 38.152 53.6549 38.644 53.6669 39.1L54.9269 39.352V40H50.7509V39.352L52.0829 39.1C52.0949 38.656 52.1009 38.17 52.1009 37.642C52.1129 37.102 52.1189 36.628 52.1189 36.22V34.69C52.1189 33.874 52.0049 33.31 51.7769 32.998C51.5489 32.674 51.1709 32.512 50.6429 32.512C50.2349 32.512 49.8449 32.596 49.4729 32.764C49.1009 32.932 48.6929 33.208 48.2489 33.592V36.22C48.2489 36.616 48.2489 37.084 48.2489 37.624C48.2609 38.152 48.2729 38.644 48.2849 39.1L49.5269 39.352V40H45.3509ZM65.6975 32.044C65.3615 32.044 65.0195 32.14 64.6715 32.332C64.3355 32.524 64.0415 32.83 63.7895 33.25C63.5495 33.67 63.3935 34.228 63.3215 34.924H66.5975C67.0295 34.924 67.3115 34.834 67.4435 34.654C67.5875 34.474 67.6595 34.252 67.6595 33.988C67.6595 33.64 67.5695 33.322 67.3895 33.034C67.2215 32.734 66.9875 32.494 66.6875 32.314C66.3995 32.134 66.0695 32.044 65.6975 32.044ZM65.6795 40.234C64.4675 40.234 63.4955 39.844 62.7635 39.064C62.0315 38.272 61.6655 37.186 61.6655 35.806C61.6655 34.882 61.8515 34.078 62.2235 33.394C62.6075 32.71 63.1115 32.176 63.7355 31.792C64.3715 31.408 65.0615 31.216 65.8055 31.216C66.4295 31.216 66.9935 31.354 67.4975 31.63C68.0015 31.906 68.4035 32.302 68.7035 32.818C69.0035 33.322 69.1535 33.94 69.1535 34.672C69.1535 34.876 69.1415 35.068 69.1175 35.248C69.0935 35.416 69.0635 35.56 69.0275 35.68H63.2855C63.3095 36.784 63.5855 37.624 64.1135 38.2C64.6415 38.776 65.3375 39.064 66.2015 39.064C66.7775 39.064 67.2575 38.95 67.6415 38.722C68.0255 38.482 68.3795 38.176 68.7035 37.804L69.1355 38.146C68.7995 38.782 68.3435 39.292 67.7675 39.676C67.1915 40.048 66.4955 40.234 65.6795 40.234ZM70.7513 40V39.352L72.0833 39.1C72.0953 38.644 72.1013 38.152 72.1013 37.624C72.1133 37.096 72.1193 36.628 72.1193 36.22V35.356C72.1193 34.864 72.1133 34.456 72.1013 34.132C72.1013 33.808 72.0893 33.466 72.0653 33.106L70.6433 32.944V32.314L73.1633 31.216L73.4333 31.396L73.5773 32.836C74.0213 32.356 74.5313 31.966 75.1073 31.666C75.6833 31.366 76.2473 31.216 76.7993 31.216C77.5793 31.216 78.1553 31.48 78.5273 32.008C78.9113 32.524 79.1033 33.37 79.1033 34.546V36.22C79.1033 36.628 79.1033 37.096 79.1033 37.624C79.1152 38.152 79.1273 38.644 79.1393 39.1L80.3993 39.352V40H76.2233V39.352L77.5553 39.1C77.5673 38.656 77.5733 38.17 77.5733 37.642C77.5853 37.102 77.5913 36.628 77.5913 36.22V34.69C77.5913 33.862 77.4713 33.292 77.2313 32.98C77.0033 32.668 76.6253 32.512 76.0973 32.512C75.6893 32.512 75.2933 32.596 74.9093 32.764C74.5253 32.932 74.1053 33.208 73.6493 33.592V36.22C73.6493 36.616 73.6493 37.084 73.6493 37.624C73.6613 38.152 73.6733 38.644 73.6853 39.1L74.9273 39.352V40H70.7513ZM84.5494 40.234C83.9254 40.234 83.4274 40.066 83.0554 39.73C82.6834 39.394 82.4974 38.878 82.4974 38.182C82.4974 37.954 82.4974 37.732 82.4974 37.516C82.5094 37.288 82.5154 37 82.5154 36.652V32.404H81.0214V31.612L82.6234 31.414L83.0914 29.002H84.1714L84.0634 31.45H86.4934V32.404H84.0454V37.984C84.0454 38.44 84.1354 38.776 84.3154 38.992C84.4954 39.196 84.7354 39.298 85.0354 39.298C85.2394 39.298 85.4314 39.256 85.6114 39.172C85.8034 39.088 86.0134 38.968 86.2414 38.812L86.6734 39.28C86.1814 39.916 85.4734 40.234 84.5494 40.234ZM4.99317 51.696V50.958H10.0872V51.696L8.43117 51.894C8.41917 52.662 8.40717 53.436 8.39517 54.216C8.39517 54.984 8.39517 55.758 8.39517 56.538V57.78C8.39517 58.416 8.39517 59.106 8.39517 59.85C8.40717 60.582 8.41917 61.332 8.43117 62.1H12.5172L13.0392 59.616H14.1372L13.9572 63H4.99317V62.262L6.64917 62.064C6.67317 61.284 6.68517 60.51 6.68517 59.742C6.68517 58.974 6.68517 58.206 6.68517 57.438V56.538C6.68517 55.758 6.68517 54.978 6.68517 54.198C6.68517 53.418 6.67317 52.65 6.64917 51.894L4.99317 51.696ZM19.7658 55.044C19.4298 55.044 19.0878 55.14 18.7398 55.332C18.4038 55.524 18.1098 55.83 17.8578 56.25C17.6178 56.67 17.4618 57.228 17.3898 57.924H20.6658C21.0978 57.924 21.3798 57.834 21.5118 57.654C21.6558 57.474 21.7278 57.252 21.7278 56.988C21.7278 56.64 21.6378 56.322 21.4578 56.034C21.2898 55.734 21.0558 55.494 20.7558 55.314C20.4678 55.134 20.1378 55.044 19.7658 55.044ZM19.7478 63.234C18.5358 63.234 17.5638 62.844 16.8318 62.064C16.0998 61.272 15.7338 60.186 15.7338 58.806C15.7338 57.882 15.9198 57.078 16.2918 56.394C16.6758 55.71 17.1798 55.176 17.8038 54.792C18.4398 54.408 19.1298 54.216 19.8738 54.216C20.4978 54.216 21.0618 54.354 21.5658 54.63C22.0698 54.906 22.4718 55.302 22.7718 55.818C23.0718 56.322 23.2218 56.94 23.2218 57.672C23.2218 57.876 23.2098 58.068 23.1858 58.248C23.1618 58.416 23.1318 58.56 23.0958 58.68H17.3538C17.3778 59.784 17.6538 60.624 18.1818 61.2C18.7098 61.776 19.4058 62.064 20.2698 62.064C20.8458 62.064 21.3258 61.95 21.7098 61.722C22.0938 61.482 22.4478 61.176 22.7718 60.804L23.2038 61.146C22.8678 61.782 22.4118 62.292 21.8358 62.676C21.2598 63.048 20.5638 63.234 19.7478 63.234ZM31.4118 63.18C30.9798 63.18 30.6198 63.054 30.3318 62.802C30.0438 62.55 29.8638 62.214 29.7918 61.794C29.2998 62.274 28.8678 62.634 28.4958 62.874C28.1238 63.114 27.6738 63.234 27.1458 63.234C26.4858 63.234 25.9158 63.048 25.4358 62.676C24.9678 62.292 24.7338 61.728 24.7338 60.984C24.7338 60.636 24.8118 60.312 24.9678 60.012C25.1358 59.712 25.4358 59.418 25.8678 59.13C26.2998 58.842 26.9178 58.554 27.7218 58.266C27.9978 58.17 28.3158 58.068 28.6758 57.96C29.0358 57.852 29.3958 57.756 29.7558 57.672V57.222C29.7558 56.346 29.6238 55.764 29.3598 55.476C29.0958 55.188 28.6638 55.044 28.0638 55.044C27.9318 55.044 27.7818 55.05 27.6138 55.062C27.4578 55.074 27.2838 55.104 27.0918 55.152L26.7498 56.322C26.5818 56.898 26.2698 57.186 25.8138 57.186C25.3098 57.186 25.0278 56.94 24.9678 56.448C25.1358 55.764 25.5318 55.224 26.1558 54.828C26.7918 54.42 27.5658 54.216 28.4778 54.216C29.4258 54.216 30.1278 54.456 30.5838 54.936C31.0398 55.404 31.2678 56.208 31.2678 57.348V61.182C31.2678 61.566 31.3278 61.842 31.4478 62.01C31.5678 62.166 31.7238 62.244 31.9158 62.244C32.0718 62.244 32.2038 62.208 32.3118 62.136C32.4198 62.064 32.5218 61.968 32.6178 61.848L32.9778 62.244C32.7618 62.592 32.5218 62.838 32.2578 62.982C32.0058 63.114 31.7238 63.18 31.4118 63.18ZM26.3358 60.714C26.3358 61.194 26.4738 61.536 26.7498 61.74C27.0258 61.944 27.3678 62.046 27.7758 62.046C27.9558 62.046 28.1238 62.022 28.2798 61.974C28.4478 61.926 28.6458 61.836 28.8738 61.704C29.1018 61.56 29.3958 61.356 29.7558 61.092V58.338C29.4438 58.422 29.1378 58.518 28.8378 58.626C28.5378 58.722 28.2918 58.806 28.0998 58.878C27.5838 59.082 27.1998 59.292 26.9478 59.508C26.6958 59.724 26.5278 59.934 26.4438 60.138C26.3718 60.342 26.3358 60.534 26.3358 60.714ZM37.1723 59.4C37.7483 59.4 38.1983 59.184 38.5223 58.752C38.8463 58.32 39.0083 57.774 39.0083 57.114C39.0083 56.478 38.8523 55.962 38.5403 55.566C38.2403 55.158 37.8083 54.954 37.2443 54.954C36.6803 54.954 36.2363 55.164 35.9123 55.584C35.5883 55.992 35.4263 56.526 35.4263 57.186C35.4263 57.846 35.5763 58.38 35.8763 58.788C36.1883 59.196 36.6203 59.4 37.1723 59.4ZM37.2083 60.12C36.7403 60.12 36.2963 60.054 35.8763 59.922C35.5763 60.306 35.4263 60.69 35.4263 61.074C35.4263 61.314 35.4923 61.506 35.6243 61.65C35.7683 61.794 36.0503 61.866 36.4703 61.866H38.8283C39.8243 61.866 40.5563 62.07 41.0243 62.478C41.4923 62.886 41.7263 63.456 41.7263 64.188C41.7263 64.704 41.5583 65.202 41.2223 65.682C40.8983 66.162 40.4063 66.552 39.7463 66.852C39.0863 67.152 38.2643 67.302 37.2803 67.302C35.9723 67.302 35.0243 67.098 34.4363 66.69C33.8483 66.282 33.5543 65.76 33.5543 65.124C33.5543 64.74 33.6803 64.38 33.9323 64.044C34.1963 63.72 34.6583 63.396 35.3183 63.072C34.5263 62.856 34.1303 62.4 34.1303 61.704C34.1303 61.416 34.2203 61.116 34.4003 60.804C34.5923 60.492 34.9103 60.126 35.3543 59.706C34.9223 59.466 34.5803 59.136 34.3283 58.716C34.0883 58.296 33.9683 57.78 33.9683 57.168C33.9683 56.22 34.2743 55.494 34.8863 54.99C35.5103 54.474 36.2903 54.216 37.2263 54.216C38.1743 54.216 38.9363 54.45 39.5123 54.918L41.5463 54.216L41.8163 54.396V55.53H40.0523C40.3283 55.974 40.4663 56.52 40.4663 57.168C40.4663 58.116 40.1543 58.848 39.5303 59.364C38.9183 59.868 38.1443 60.12 37.2083 60.12ZM35.0303 64.836C35.0303 65.424 35.2403 65.844 35.6603 66.096C36.0803 66.348 36.6443 66.474 37.3523 66.474C38.3363 66.474 39.0863 66.294 39.6023 65.934C40.1183 65.586 40.3763 65.16 40.3763 64.656C40.3763 64.26 40.2383 63.924 39.9623 63.648C39.6863 63.384 39.2243 63.252 38.5763 63.252H36.4703C36.3503 63.252 36.2243 63.246 36.0923 63.234C35.9723 63.234 35.8523 63.228 35.7323 63.216C35.4803 63.48 35.3003 63.738 35.1923 63.99C35.0843 64.254 35.0303 64.536 35.0303 64.836ZM46.2367 63.234C45.5047 63.234 44.9287 62.994 44.5087 62.514C44.0887 62.022 43.8847 61.182 43.8967 59.994L43.9507 55.512L42.6727 55.242V54.594L45.3187 54.342L45.4987 54.522L45.4087 57.042V59.832C45.4087 60.612 45.5287 61.164 45.7687 61.488C46.0087 61.8 46.3687 61.956 46.8487 61.956C47.6887 61.956 48.5287 61.566 49.3687 60.786L49.4227 55.494L48.1447 55.242V54.594L50.7547 54.342L50.9347 54.522L50.8807 57.042V62.1L52.1047 62.352V63L49.6027 63.144L49.4227 61.542C48.9427 62.13 48.4267 62.562 47.8747 62.838C47.3347 63.102 46.7887 63.234 46.2367 63.234ZM57.383 55.044C57.047 55.044 56.705 55.14 56.357 55.332C56.021 55.524 55.727 55.83 55.475 56.25C55.235 56.67 55.079 57.228 55.007 57.924H58.283C58.715 57.924 58.997 57.834 59.129 57.654C59.273 57.474 59.345 57.252 59.345 56.988C59.345 56.64 59.255 56.322 59.075 56.034C58.907 55.734 58.673 55.494 58.373 55.314C58.085 55.134 57.755 55.044 57.383 55.044ZM57.365 63.234C56.153 63.234 55.181 62.844 54.449 62.064C53.717 61.272 53.351 60.186 53.351 58.806C53.351 57.882 53.537 57.078 53.909 56.394C54.293 55.71 54.797 55.176 55.421 54.792C56.057 54.408 56.747 54.216 57.491 54.216C58.115 54.216 58.679 54.354 59.183 54.63C59.687 54.906 60.089 55.302 60.389 55.818C60.689 56.322 60.839 56.94 60.839 57.672C60.839 57.876 60.827 58.068 60.803 58.248C60.779 58.416 60.749 58.56 60.713 58.68H54.971C54.995 59.784 55.271 60.624 55.799 61.2C56.327 61.776 57.023 62.064 57.887 62.064C58.463 62.064 58.943 61.95 59.327 61.722C59.711 61.482 60.065 61.176 60.389 60.804L60.821 61.146C60.485 61.782 60.029 62.292 59.453 62.676C58.877 63.048 58.181 63.234 57.365 63.234Z" fill="black"/>
</svg>
