<svg width="24" height="32" viewBox="0 0 24 32" fill="none" xmlns="http://www.w3.org/2000/svg">
<path d="M0 4C0 2.93913 0.421427 1.92172 1.17157 1.17157C1.92172 0.421427 2.93913 0 4 0H20C21.0609 0 22.0783 0.421427 22.8284 1.17157C23.5786 1.92172 24 2.93913 24 4V26C24 26.5304 23.7893 27.0391 23.4142 27.4142C23.0391 27.7893 22.5304 28 22 28H2C2 28.5304 2.21071 29.0391 2.58579 29.4142C2.96086 29.7893 3.46957 30 4 30H23C23.2652 30 23.5196 30.1054 23.7071 30.2929C23.8946 30.4804 24 30.7348 24 31C24 31.2652 23.8946 31.5196 23.7071 31.7071C23.5196 31.8946 23.2652 32 23 32H4C2.93913 32 1.92172 31.5786 1.17157 30.8284C0.421427 30.0783 0 29.0609 0 28V4ZM12.908 6.58C12.8277 6.40709 12.6997 6.26074 12.539 6.15818C12.3783 6.05562 12.1916 6.00113 12.001 6.00113C11.8104 6.00113 11.6237 6.05562 11.463 6.15818C11.3023 6.26074 11.1743 6.40709 11.094 6.58L9.45 10.12L5.574 10.588C5.38463 10.6109 5.20575 10.6875 5.05848 10.8087C4.9112 10.9299 4.80167 11.0907 4.7428 11.2722C4.68393 11.4536 4.67818 11.6481 4.72624 11.8327C4.77429 12.0173 4.87414 12.1843 5.014 12.314L7.874 14.97L7.12 18.8C7.08331 18.9871 7.10088 19.1808 7.17064 19.3583C7.2404 19.5357 7.35944 19.6896 7.51373 19.8016C7.66802 19.9136 7.85113 19.9792 8.04146 19.9906C8.2318 20.002 8.42143 19.9588 8.588 19.866L12 17.97L15.41 19.866C15.5766 19.9588 15.7662 20.002 15.9565 19.9906C16.1469 19.9792 16.33 19.9136 16.4843 19.8016C16.6386 19.6896 16.7576 19.5357 16.8274 19.3583C16.8971 19.1808 16.9147 18.9871 16.878 18.8L16.128 14.97L18.988 12.314C19.1279 12.1842 19.2277 12.017 19.2757 11.8322C19.3237 11.6475 19.3177 11.4529 19.2586 11.2714C19.1996 11.0899 19.0897 10.9291 18.9422 10.808C18.7947 10.6869 18.6155 10.6106 18.426 10.588L14.552 10.118L12.908 6.58ZM11.028 11.466L12 9.374L12.972 11.466C13.0435 11.6203 13.1533 11.7538 13.2908 11.8539C13.4284 11.954 13.5892 12.0174 13.758 12.038L16.048 12.314L14.358 13.884C14.2333 14 14.1402 14.146 14.0877 14.308C14.0352 14.4701 14.025 14.6429 14.058 14.81L14.502 17.072L12.486 15.952C12.3374 15.8693 12.1701 15.826 12 15.826C11.8299 15.826 11.6626 15.8693 11.514 15.952L9.498 17.072L9.942 14.81C9.97501 14.6429 9.96477 14.4701 9.91227 14.308C9.85977 14.146 9.76674 14 9.642 13.884L7.954 12.314L10.24 12.04C10.4088 12.0194 10.5696 11.956 10.7072 11.8559C10.8447 11.7558 10.9544 11.6223 11.026 11.468" fill="#5E6C77"/>
</svg>
