<svg width="174" height="16" viewBox="0 0 174 16" fill="none" xmlns="http://www.w3.org/2000/svg">
<path d="M6.71138 4.512H9.71938V6.208H6.71138V4.512ZM6.63138 8.208H9.65538V9.904H6.63138V8.208ZM11.7354 0.608H13.7674V15.424H11.7354V0.608ZM8.67938 0.927999H10.6634V14.768H8.67938V0.927999ZM5.33538 2.352H7.38338C7.38338 6.56 6.11938 9.92 1.99138 12.352L0.791375 10.864C4.13538 8.832 5.33538 6.368 5.33538 2.784V2.352ZM1.63938 2.352H6.05538V4.048H1.63938V2.352ZM23.7501 4.192H26.5661V5.92H23.7501V4.192ZM25.9901 0.608H28.1181V9.408H25.9901V0.608ZM23.0941 9.728C26.2301 9.728 28.1661 10.8 28.1661 12.592C28.1661 14.4 26.2301 15.44 23.0941 15.44C19.9581 15.44 18.0221 14.4 18.0221 12.592C18.0221 10.8 19.9581 9.728 23.0941 9.728ZM23.0941 11.344C21.1741 11.344 20.1501 11.744 20.1501 12.592C20.1501 13.424 21.1741 13.824 23.0941 13.824C25.0301 13.824 26.0541 13.424 26.0541 12.592C26.0541 11.744 25.0301 11.344 23.0941 11.344ZM19.1421 2.096H20.8701V3.024C20.8701 5.856 19.5581 8.448 16.7261 9.408L15.6381 7.728C18.0861 6.896 19.1421 4.928 19.1421 3.024V2.096ZM19.5901 2.096H21.3021V3.024C21.3021 4.768 22.3101 6.576 24.6461 7.36L23.6061 9.04C20.8541 8.128 19.5901 5.664 19.5901 3.024V2.096ZM16.2141 1.504H24.1821V3.2H16.2141V1.504ZM42.4376 4.192H45.2536V5.92H42.4376V4.192ZM44.6776 0.608H46.8056V9.408H44.6776V0.608ZM41.7816 9.728C44.9176 9.728 46.8536 10.8 46.8536 12.592C46.8536 14.4 44.9176 15.44 41.7816 15.44C38.6456 15.44 36.7096 14.4 36.7096 12.592C36.7096 10.8 38.6456 9.728 41.7816 9.728ZM41.7816 11.344C39.8616 11.344 38.8376 11.744 38.8376 12.592C38.8376 13.424 39.8616 13.824 41.7816 13.824C43.7176 13.824 44.7416 13.424 44.7416 12.592C44.7416 11.744 43.7176 11.344 41.7816 11.344ZM37.8296 2.096H39.5576V3.024C39.5576 5.856 38.2456 8.448 35.4136 9.408L34.3256 7.728C36.7736 6.896 37.8296 4.928 37.8296 3.024V2.096ZM38.2776 2.096H39.9896V3.024C39.9896 4.768 40.9976 6.576 43.3336 7.36L42.2936 9.04C39.5416 8.128 38.2776 5.664 38.2776 3.024V2.096ZM34.9016 1.504H42.8696V3.2H34.9016V1.504ZM49.1404 11.984H62.5484V13.712H49.1404V11.984ZM54.7564 8.816H56.8844V12.4H54.7564V8.816ZM50.5484 1.552H52.6604V3.824H58.9804V1.552H61.0924V9.264H50.5484V1.552ZM52.6604 5.488V7.568H58.9804V5.488H52.6604ZM73.7791 0.768H75.1231V15.248H73.7791V0.768ZM74.7551 6.64H77.4271V7.744H74.7551V6.64ZM70.0831 2.336H71.3791C71.3791 6.448 69.4911 10.16 64.8191 12.512L64.0831 11.488C68.0831 9.456 70.0831 6.368 70.0831 2.544V2.336ZM64.7551 2.336H70.7711V3.424H64.7551V2.336ZM86.4923 1.904H87.5803V3.056C87.5803 5.552 85.9323 7.584 83.4683 8.368L82.8123 7.312C85.0043 6.656 86.4923 4.96 86.4923 3.056V1.904ZM86.7323 1.904H87.8203V3.056C87.8203 4.768 89.2603 6.336 91.3883 6.944L90.7643 8C88.3483 7.264 86.7323 5.344 86.7323 3.056V1.904ZM83.2603 1.584H91.0043V2.672H83.2603V1.584ZM92.8443 0.783999H94.1723V8.224H92.8443V0.783999ZM93.5963 3.92H96.3003V5.024H93.5963V3.92ZM84.9883 8.912H94.1723V12.416H86.3323V14.64H85.0203V11.44H92.8763V9.952H84.9883V8.912ZM85.0203 14.08H94.7003V15.104H85.0203V14.08ZM99.339 1.376H109.067V6.256H99.339V1.376ZM107.755 2.448H100.635V5.184H107.755V2.448ZM97.659 7.952H110.731V9.024H97.659V7.952ZM103.547 5.92H104.859V8.416H103.547V5.92ZM103.531 9.936H104.667V10.384C104.667 12.976 102.139 14.672 99.179 15.168L98.667 14.128C101.307 13.744 103.531 12.304 103.531 10.384V9.936ZM103.739 9.936H104.875V10.384C104.875 12.304 107.083 13.744 109.723 14.128L109.211 15.168C106.251 14.672 103.739 12.976 103.739 10.384V9.936ZM115.594 5.888H116.842V8.848H115.594V5.888ZM112.458 9.216L112.314 8.128C114.218 8.128 117.37 8.096 119.642 7.776L119.706 8.72C117.386 9.168 114.362 9.2 112.458 9.216ZM123.29 0.783999H124.57V9.696H123.29V0.783999ZM121.21 4.832H123.706V5.92H121.21V4.832ZM120.33 1.056H121.578V9.616H120.33V1.056ZM113.178 5.264H119.21V6.352H113.178V5.264ZM113.178 1.696H119.13V2.768H114.474V5.744H113.178V1.696ZM116.074 10.304H117.098V10.704C117.098 12.608 115.898 14.4 113.786 15.104L113.162 14.112C114.986 13.536 116.074 12.112 116.074 10.704V10.304ZM116.378 10.304H117.354V10.704C117.354 12.032 118.218 13.568 119.914 14.24L119.386 15.216C117.306 14.432 116.378 12.496 116.378 10.704V10.304ZM121.402 10.304H122.378V10.704C122.378 12.464 121.434 14.432 119.386 15.216L118.826 14.24C120.538 13.536 121.402 12 121.402 10.704V10.304ZM121.674 10.304H122.682V10.704C122.682 12.144 123.77 13.568 125.61 14.112L124.986 15.104C122.858 14.4 121.674 12.64 121.674 10.704V10.304ZM128.761 9.456H130.073V11.136H137.145V9.456H138.473V15.056H128.761V9.456ZM130.073 12.16V13.984H137.145V12.16H130.073ZM127.097 7.376H140.169V8.448H127.097V7.376ZM132.969 0.943999H134.105V1.584C134.105 4.096 131.305 5.904 128.329 6.352L127.849 5.312C130.457 4.96 132.969 3.408 132.969 1.584V0.943999ZM133.177 0.943999H134.312V1.584C134.312 3.376 136.857 4.96 139.433 5.312L138.937 6.352C135.993 5.904 133.177 4.064 133.177 1.584V0.943999ZM152.343 0.783999H153.671V15.248H152.343V0.783999ZM142.743 2.192H144.055V11.152H142.743V2.192ZM142.743 10.368H143.927C146.119 10.368 148.407 10.208 150.855 9.696L151.015 10.832C148.503 11.344 146.215 11.52 143.927 11.52H142.743V10.368ZM166.326 0.768H167.67V15.264H166.326V0.768ZM167.35 6.48H170.038V7.6H167.35V6.48ZM157.158 10.544H158.294C160.966 10.544 162.838 10.448 164.998 10.048L165.142 11.168C162.918 11.584 161.014 11.664 158.294 11.664H157.158V10.544ZM157.158 2.176H163.878V3.264H158.47V11.04H157.158V2.176ZM172.73 14.108C172.42 14.108 172.152 13.9981 171.929 13.7784C171.705 13.5549 171.594 13.286 171.594 12.9716C171.594 12.661 171.705 12.3958 171.929 12.1761C172.152 11.9527 172.42 11.8409 172.73 11.8409C173.041 11.8409 173.308 11.9527 173.531 12.1761C173.755 12.3958 173.866 12.661 173.866 12.9716C173.866 13.1799 173.813 13.3712 173.707 13.5455C173.605 13.7159 173.469 13.8523 173.298 13.9545C173.128 14.0568 172.938 14.108 172.73 14.108Z" fill="#FF1348"/>
</svg>
