<svg width="169" height="16" viewBox="0 0 169 16" fill="none" xmlns="http://www.w3.org/2000/svg">
<path d="M10.1281 0.591999H12.2721V15.456H10.1281V0.591999ZM0.704125 1.776H2.81613V5.376H5.87213V1.776H7.98413V12H0.704125V1.776ZM2.81613 7.024V10.288H5.87213V7.024H2.81613ZM15.4389 1.344H22.6229V7.616H15.4389V1.344ZM20.5429 3.008H17.5189V5.952H20.5429V3.008ZM24.8629 0.608H27.0069V8.08H24.8629V0.608ZM17.1189 8.72H27.0069V12.752H19.2309V14.256H17.1349V11.232H24.8949V10.352H17.1189V8.72ZM17.1349 13.68H27.3749V15.328H17.1349V13.68ZM36.4136 4.544H40.2216V6.24H36.4136V4.544ZM39.6776 0.624H41.8056V11.552H39.6776V0.624ZM31.9976 13.472H42.1256V15.168H31.9976V13.472ZM31.9976 10.48H34.1416V14.448H31.9976V10.48ZM30.0296 1.584H32.1416V3.84H34.9576V1.584H37.0376V9.232H30.0296V1.584ZM32.1416 5.456V7.552H34.9576V5.456H32.1416ZM44.7004 2.448H56.9244V4.144H44.7004V2.448ZM44.1404 12.224H57.5484V13.936H44.1404V12.224ZM49.7564 10.272H51.8684V12.896H49.7564V10.272ZM50.7964 4.784C53.8844 4.784 55.8204 5.856 55.8204 7.68C55.8204 9.504 53.8844 10.576 50.7964 10.576C47.7084 10.576 45.7724 9.504 45.7724 7.68C45.7724 5.856 47.7084 4.784 50.7964 4.784ZM50.7964 6.432C48.9404 6.432 47.9484 6.832 47.9484 7.68C47.9484 8.528 48.9404 8.912 50.7964 8.912C52.6524 8.912 53.6444 8.528 53.6444 7.68C53.6444 6.832 52.6524 6.432 50.7964 6.432ZM49.7564 0.768H51.8684V3.504H49.7564V0.768ZM58.9871 7.504H72.1071V8.512H58.9871V7.504ZM60.5391 9.68H70.4591V12.768H61.8991V14.464H60.5871V11.856H69.1631V10.624H60.5391V9.68ZM60.5871 14.112H70.9231V15.072H60.5871V14.112ZM60.6511 1.2H70.4111V4.208H61.9951V5.776H60.6831V3.312H69.1151V2.144H60.6511V1.2ZM60.6831 5.456H70.6831V6.416H60.6831V5.456ZM88.4683 0.783999H89.8123V8.544H88.4683V0.783999ZM80.4843 9.264H81.7963V11.024H88.5003V9.264H89.8123V15.056H80.4843V9.264ZM81.7963 12.08V13.984H88.5003V12.08H81.7963ZM82.0523 1.472C84.2443 1.472 85.8123 2.832 85.8123 4.8C85.8123 6.784 84.2443 8.144 82.0523 8.144C79.8603 8.144 78.2763 6.784 78.2763 4.8C78.2763 2.832 79.8603 1.472 82.0523 1.472ZM82.0523 2.576C80.6123 2.576 79.5723 3.488 79.5723 4.8C79.5723 6.112 80.6123 7.024 82.0523 7.024C83.4923 7.024 84.5323 6.112 84.5323 4.8C84.5323 3.488 83.4923 2.576 82.0523 2.576ZM93.267 7.952H94.307C97.155 7.952 98.563 7.904 100.291 7.6L100.435 8.672C98.643 8.992 97.203 9.04 94.307 9.04H93.267V7.952ZM93.235 1.648H99.475V5.76H94.579V8.608H93.267V4.72H98.163V2.736H93.235V1.648ZM103.235 0.799999H104.563V9.68H103.235V0.799999ZM100.435 2.928H103.539V4.016H100.435V2.928ZM100.435 5.92H103.539V7.008H100.435V5.92ZM94.883 10.464H104.563V15.28H103.235V11.552H94.883V10.464ZM107.362 3.248H114.53V4.336H107.362V3.248ZM110.946 5.296C112.754 5.296 114.066 6.656 114.066 8.608C114.066 10.544 112.754 11.904 110.946 11.904C109.154 11.904 107.842 10.544 107.842 8.608C107.842 6.656 109.154 5.296 110.946 5.296ZM110.946 6.432C109.842 6.432 109.042 7.328 109.042 8.608C109.042 9.888 109.842 10.784 110.946 10.784C112.066 10.784 112.882 9.888 112.882 8.608C112.882 7.328 112.066 6.432 110.946 6.432ZM118.354 0.783999H119.634V15.248H118.354V0.783999ZM116.05 6.864H118.786V7.968H116.05V6.864ZM115.266 1.104H116.514V14.544H115.266V1.104ZM110.306 1.2H111.618V3.92H110.306V1.2ZM127.905 2.208H129.057V2.816C129.057 5.408 126.305 7.312 123.393 7.808L122.881 6.752C125.424 6.384 127.905 4.72 127.905 2.816V2.208ZM128.241 2.208H129.377V2.816C129.377 4.72 131.873 6.384 134.401 6.752L133.905 7.808C130.977 7.312 128.241 5.408 128.241 2.816V2.208ZM127.953 9.728H129.265V15.248H127.953V9.728ZM122.113 9.024H135.185V10.112H122.113V9.024ZM123.329 1.68H133.921V2.752H123.329V1.68ZM142.527 5.952H145.295V7.056H142.527V5.952ZM139.823 2.144H140.863V4.896C140.863 7.92 139.599 10.848 137.487 12.144L136.655 11.136C138.639 9.968 139.823 7.376 139.823 4.896V2.144ZM140.079 2.144H141.103V4.848C141.103 7.168 142.191 9.632 144.095 10.784L143.327 11.824C141.247 10.544 140.079 7.664 140.079 4.848V2.144ZM147.839 0.783999H149.119V15.248H147.839V0.783999ZM144.911 1.088H146.159V14.528H144.911V1.088ZM154.75 8.224H156.062V12.56H154.75V8.224ZM160.094 8.224H161.422V12.56H160.094V8.224ZM151.55 12.304H164.654V13.408H151.55V12.304ZM158.078 1.696C161.134 1.696 163.326 3.152 163.326 5.424C163.326 7.68 161.134 9.136 158.078 9.136C155.006 9.136 152.814 7.68 152.814 5.424C152.814 3.152 155.006 1.696 158.078 1.696ZM158.078 2.752C155.758 2.752 154.094 3.808 154.094 5.424C154.094 7.024 155.758 8.08 158.078 8.08C160.398 8.08 162.046 7.024 162.046 5.424C162.046 3.808 160.398 2.752 158.078 2.752ZM167.73 14.108C167.42 14.108 167.152 13.9981 166.929 13.7784C166.705 13.5549 166.594 13.286 166.594 12.9716C166.594 12.661 166.705 12.3958 166.929 12.1761C167.152 11.9527 167.42 11.8409 167.73 11.8409C168.041 11.8409 168.308 11.9527 168.531 12.1761C168.755 12.3958 168.866 12.661 168.866 12.9716C168.866 13.1799 168.813 13.3712 168.707 13.5455C168.605 13.7159 168.469 13.8523 168.298 13.9545C168.128 14.0568 167.938 14.108 167.73 14.108Z" fill="#FF1348"/>
</svg>
