<svg width="154" height="16" viewBox="0 0 154 16" fill="none" xmlns="http://www.w3.org/2000/svg">
<path d="M9.84688 0.591999H11.9909V15.456H9.84688V0.591999ZM4.00688 1.632C6.24688 1.632 7.89488 3.68 7.89488 6.912C7.89488 10.176 6.24688 12.224 4.00688 12.224C1.76688 12.224 0.118875 10.176 0.118875 6.912C0.118875 3.68 1.76688 1.632 4.00688 1.632ZM4.00688 3.568C2.90288 3.568 2.15088 4.736 2.15088 6.912C2.15088 9.12 2.90288 10.304 4.00688 10.304C5.11088 10.304 5.84688 9.12 5.84688 6.912C5.84688 4.736 5.11088 3.568 4.00688 3.568ZM14.8216 2.128H20.6776V11.728H14.8216V2.128ZM18.6936 3.792H16.8056V10.064H18.6936V3.792ZM25.1096 0.608H27.1416V15.424H25.1096V0.608ZM19.6056 5.984H22.9336V7.696H19.6056V5.984ZM22.0856 0.832H24.0856V14.752H22.0856V0.832ZM33.3004 1.04C35.5564 1.04 37.2524 2.448 37.2524 4.432C37.2524 6.4 35.5564 7.808 33.3004 7.808C31.0444 7.808 29.3484 6.4 29.3484 4.432C29.3484 2.448 31.0444 1.04 33.3004 1.04ZM33.3004 2.768C32.2124 2.768 31.3964 3.376 31.3964 4.432C31.3964 5.488 32.2124 6.096 33.3004 6.096C34.3884 6.096 35.1884 5.488 35.1884 4.432C35.1884 3.376 34.3884 2.768 33.3004 2.768ZM39.3004 0.608H41.4444V8.016H39.3004V0.608ZM31.5564 8.624H41.4444V12.688H33.6684V14.48H31.5884V11.152H39.3324V10.272H31.5564V8.624ZM31.5884 13.616H41.8124V15.264H31.5884V13.616ZM50.5311 1.024C53.7151 1.024 55.6191 1.92 55.6191 3.536C55.6191 5.152 53.7151 6.048 50.5311 6.048C47.3311 6.048 45.4431 5.152 45.4431 3.536C45.4431 1.92 47.3311 1.024 50.5311 1.024ZM50.5311 2.032C48.1631 2.032 46.8031 2.576 46.8031 3.536C46.8031 4.496 48.1631 5.04 50.5311 5.04C52.8831 5.04 54.2431 4.496 54.2431 3.536C54.2431 2.576 52.8831 2.032 50.5311 2.032ZM43.9871 7.008H57.0591V8.08H43.9871V7.008ZM45.5711 9.312H55.3951V12.576H46.9151V14.336H45.6031V11.616H54.0831V10.336H45.5711V9.312ZM45.6031 14.048H55.8271V15.088H45.6031V14.048ZM73.4683 0.783999H74.8123V8.544H73.4683V0.783999ZM65.4843 9.264H66.7963V11.024H73.5003V9.264H74.8123V15.056H65.4843V9.264ZM66.7963 12.08V13.984H73.5003V12.08H66.7963ZM67.0523 1.472C69.2443 1.472 70.8123 2.832 70.8123 4.8C70.8123 6.784 69.2443 8.144 67.0523 8.144C64.8603 8.144 63.2763 6.784 63.2763 4.8C63.2763 2.832 64.8603 1.472 67.0523 1.472ZM67.0523 2.576C65.6123 2.576 64.5723 3.488 64.5723 4.8C64.5723 6.112 65.6123 7.024 67.0523 7.024C68.4923 7.024 69.5323 6.112 69.5323 4.8C69.5323 3.488 68.4923 2.576 67.0523 2.576ZM78.267 7.952H79.307C82.155 7.952 83.563 7.904 85.291 7.6L85.435 8.672C83.643 8.992 82.203 9.04 79.307 9.04H78.267V7.952ZM78.235 1.648H84.475V5.76H79.579V8.608H78.267V4.72H83.163V2.736H78.235V1.648ZM88.235 0.799999H89.563V9.68H88.235V0.799999ZM85.435 2.928H88.539V4.016H85.435V2.928ZM85.435 5.92H88.539V7.008H85.435V5.92ZM79.883 10.464H89.563V15.28H88.235V11.552H79.883V10.464ZM92.3618 3.248H99.5298V4.336H92.3618V3.248ZM95.9458 5.296C97.7538 5.296 99.0658 6.656 99.0658 8.608C99.0658 10.544 97.7538 11.904 95.9458 11.904C94.1538 11.904 92.8418 10.544 92.8418 8.608C92.8418 6.656 94.1538 5.296 95.9458 5.296ZM95.9458 6.432C94.8418 6.432 94.0418 7.328 94.0418 8.608C94.0418 9.888 94.8418 10.784 95.9458 10.784C97.0658 10.784 97.8818 9.888 97.8818 8.608C97.8818 7.328 97.0658 6.432 95.9458 6.432ZM103.354 0.783999H104.634V15.248H103.354V0.783999ZM101.05 6.864H103.786V7.968H101.05V6.864ZM100.266 1.104H101.514V14.544H100.266V1.104ZM95.3058 1.2H96.6178V3.92H95.3058V1.2ZM112.905 2.208H114.057V2.816C114.057 5.408 111.305 7.312 108.393 7.808L107.881 6.752C110.424 6.384 112.905 4.72 112.905 2.816V2.208ZM113.241 2.208H114.377V2.816C114.377 4.72 116.873 6.384 119.401 6.752L118.905 7.808C115.977 7.312 113.241 5.408 113.241 2.816V2.208ZM112.953 9.728H114.265V15.248H112.953V9.728ZM107.113 9.024H120.185V10.112H107.113V9.024ZM108.329 1.68H118.921V2.752H108.329V1.68ZM127.527 5.952H130.295V7.056H127.527V5.952ZM124.823 2.144H125.863V4.896C125.863 7.92 124.599 10.848 122.487 12.144L121.655 11.136C123.639 9.968 124.823 7.376 124.823 4.896V2.144ZM125.079 2.144H126.103V4.848C126.103 7.168 127.191 9.632 129.095 10.784L128.327 11.824C126.247 10.544 125.079 7.664 125.079 4.848V2.144ZM132.839 0.783999H134.119V15.248H132.839V0.783999ZM129.911 1.088H131.159V14.528H129.911V1.088ZM139.75 8.224H141.062V12.56H139.75V8.224ZM145.094 8.224H146.422V12.56H145.094V8.224ZM136.55 12.304H149.654V13.408H136.55V12.304ZM143.078 1.696C146.134 1.696 148.326 3.152 148.326 5.424C148.326 7.68 146.134 9.136 143.078 9.136C140.006 9.136 137.814 7.68 137.814 5.424C137.814 3.152 140.006 1.696 143.078 1.696ZM143.078 2.752C140.758 2.752 139.094 3.808 139.094 5.424C139.094 7.024 140.758 8.08 143.078 8.08C145.398 8.08 147.046 7.024 147.046 5.424C147.046 3.808 145.398 2.752 143.078 2.752ZM152.73 14.108C152.42 14.108 152.152 13.9981 151.929 13.7784C151.705 13.5549 151.594 13.286 151.594 12.9716C151.594 12.661 151.705 12.3958 151.929 12.1761C152.152 11.9527 152.42 11.8409 152.73 11.8409C153.041 11.8409 153.308 11.9527 153.531 12.1761C153.755 12.3958 153.866 12.661 153.866 12.9716C153.866 13.1799 153.813 13.3712 153.707 13.5455C153.605 13.7159 153.469 13.8523 153.298 13.9545C153.128 14.0568 152.938 14.108 152.73 14.108Z" fill="#FF1348"/>
</svg>
